<svg width="46" height="46" viewBox="0 0 46 46" fill="none" xmlns="http://www.w3.org/2000/svg">
<path fill-rule="evenodd" clip-rule="evenodd" d="M23.5045 8L24.319 8.65033C25.0619 9.23831 26.2166 10.343 27.2191 11.7951C28.2127 13.2383 29.1257 15.1269 29.2331 17.265C29.2868 18.2628 29.1257 19.2249 28.8303 20.1247C30.0834 19.9198 31.3545 20.098 32.5002 20.6236C32.527 20.6325 32.5449 20.6414 32.5718 20.6592C32.5897 20.6682 32.6076 20.6771 32.6255 20.686C32.6434 20.6949 32.6613 20.7038 32.6792 20.7127C32.7508 20.7483 32.8314 20.7929 32.903 20.8285L32.9119 20.8374C32.9209 20.8374 32.9209 20.8374 32.9209 20.8463C33.1894 20.9978 33.449 21.167 33.6996 21.363C33.7712 21.4165 33.8339 21.4699 33.9055 21.5323C33.9144 21.5412 33.9323 21.5501 33.9413 21.5679C33.9502 21.5768 33.9681 21.5857 33.9771 21.5947C33.995 21.6125 34.0218 21.6303 34.0397 21.6481C34.0576 21.6659 34.0845 21.6837 34.1024 21.7016C35.0423 22.5657 35.7136 23.6882 36 24.9532L33.8339 25.4521C33.6907 24.8285 33.4042 24.2584 33.0104 23.7773C32.8761 23.6169 32.7419 23.4655 32.5897 23.3318C32.5897 23.3318 32.5807 23.3318 32.5807 23.3229L32.5718 23.314L32.5628 23.3051L32.5539 23.2962C32.5181 23.2695 32.4823 23.2339 32.4465 23.2071C32.4375 23.1982 32.4286 23.1893 32.4107 23.1804L32.3928 23.1715L32.3749 23.1626L32.3659 23.1537C32.357 23.1448 32.3391 23.1359 32.3301 23.1269C32.3212 23.118 32.3212 23.118 32.3122 23.1091C32.3033 23.1002 32.3033 23.1002 32.2943 23.0913L32.2854 23.0824C32.2585 23.0646 32.2317 23.0379 32.2048 23.02L32.1958 23.0111C32.1869 23.0022 32.1869 23.0022 32.1779 22.9933C32.1779 22.9933 32.169 22.9933 32.169 22.9844L32.16 22.9755L32.1511 22.9666C32.1153 22.9399 32.0795 22.9131 32.0347 22.8953C32.0258 22.8864 32.0168 22.8864 32.0079 22.8775C31.9989 22.8686 31.99 22.8686 31.981 22.8597C31.9452 22.8419 31.9094 22.8151 31.8736 22.7973C31.8736 22.7973 31.8647 22.7973 31.8647 22.7884C31.8647 22.7884 31.8647 22.7884 31.8557 22.7884C31.8378 22.7795 31.811 22.7617 31.7931 22.7528C31.7752 22.7439 31.7573 22.735 31.7394 22.7261C31.7304 22.7261 31.7304 22.7171 31.7214 22.7171C31.6767 22.6904 31.6409 22.6726 31.5961 22.6548C31.5961 22.6548 31.5872 22.6548 31.5872 22.6459C31.5872 22.6459 31.5872 22.6459 31.5782 22.6459C30.7995 22.2806 29.9134 22.1737 29.072 22.3341C29.0093 22.343 28.9467 22.3608 28.893 22.3697C28.884 22.3697 28.875 22.3786 28.8661 22.3786C28.8571 22.3786 28.8482 22.3875 28.8392 22.3875C28.7945 22.3964 28.7497 22.4143 28.7139 22.4232C28.705 22.4232 28.6871 22.4321 28.6781 22.4321C28.6692 22.4321 28.6513 22.441 28.6423 22.441C28.6334 22.441 28.6244 22.441 28.6244 22.4499C28.6155 22.4499 28.6065 22.4499 28.6065 22.4588C28.5797 22.4677 28.5528 22.4766 28.526 22.4855C28.517 22.4855 28.5081 22.4944 28.5081 22.4944C28.5081 22.4944 28.4991 22.4944 28.4991 22.5033H28.4902C28.0605 22.6548 27.6488 22.8864 27.2728 23.1893C27.2281 23.2249 27.1923 23.2606 27.1475 23.2962C26.8969 23.6258 26.6373 23.9376 26.3688 24.2227L26.3598 24.2316C26.3419 24.2673 26.324 24.294 26.2972 24.3296C26.2882 24.3474 26.2793 24.3563 26.2703 24.3742C26.2614 24.392 26.2524 24.4009 26.2435 24.4187C26.2345 24.4276 26.2345 24.4454 26.2256 24.4543V24.4633C26.2166 24.4722 26.2166 24.4811 26.2077 24.49C26.1808 24.5345 26.1629 24.5791 26.145 24.6236C26.145 24.6325 26.1361 24.6414 26.1361 24.6414C26.0555 24.8196 25.9839 24.9978 25.9302 25.1849H28.338V27.5546H25.8854C25.8944 27.5813 25.9033 27.608 25.9123 27.6347V27.6437C25.9123 27.6526 25.9123 27.6526 25.9212 27.6615C25.9302 27.6882 25.9391 27.7149 25.9481 27.7416C25.966 27.7951 25.9839 27.8486 26.0018 27.8931C26.0018 27.902 26.0107 27.9198 26.0197 27.9287C26.0465 27.9911 26.0644 28.0445 26.1003 28.1069C26.1003 28.1069 26.1003 28.1069 26.1003 28.1158C26.1003 28.1158 26.1003 28.1158 26.1003 28.1247C26.1271 28.1782 26.145 28.2227 26.1719 28.2762C26.1808 28.2851 26.1808 28.294 26.1898 28.3029C26.1898 28.3029 26.1898 28.3029 26.1898 28.3118C26.1987 28.3296 26.2077 28.3385 26.2166 28.3563C26.2166 28.3653 26.2256 28.3742 26.2256 28.3742C26.2256 28.3831 26.2345 28.392 26.2345 28.392C26.2435 28.4098 26.2524 28.4187 26.2614 28.4365C26.2703 28.4543 26.2793 28.4633 26.2882 28.4811C26.3061 28.5078 26.3151 28.5345 26.333 28.5523C26.3419 28.5612 26.3509 28.5791 26.3509 28.588C26.3598 28.6058 26.3777 28.6325 26.3956 28.6503C26.4046 28.6682 26.4135 28.6771 26.4225 28.6949L26.4314 28.7038C26.4404 28.7127 26.4493 28.7216 26.4493 28.7305C26.4672 28.7572 26.4851 28.784 26.503 28.8107C26.5209 28.8374 26.5388 28.8552 26.5568 28.882L26.5657 28.8909C26.5747 28.8998 26.5747 28.9087 26.5836 28.9176C26.5836 28.9265 26.5926 28.9265 26.5926 28.9354L26.6015 28.9443C26.6105 28.9532 26.6105 28.9621 26.6194 28.971C26.6552 29.0156 26.691 29.0601 26.7358 29.1047L26.7447 29.1225C27.1386 29.5679 27.6309 29.9243 28.1769 30.1648C28.2306 30.1915 28.2843 30.2094 28.329 30.2272L28.3827 30.245C28.4185 30.2628 28.4544 30.2717 28.4902 30.2895C28.5081 30.2984 28.526 30.2984 28.5439 30.3073H28.5528C28.5707 30.3163 28.5797 30.3163 28.5976 30.3252C28.5976 30.3252 28.5976 30.3252 28.6065 30.3252C28.6065 30.3252 28.6065 30.3252 28.6155 30.3252C28.6244 30.3252 28.6244 30.3252 28.6334 30.3341C28.6423 30.3341 28.6513 30.343 28.6602 30.343C28.7139 30.3608 28.7676 30.3697 28.8124 30.3875C28.8124 30.3875 28.8124 30.3875 28.8213 30.3875C28.8213 30.3875 28.8213 30.3875 28.8303 30.3875C29.4032 30.5301 30.0029 30.5479 30.5936 30.441H30.6026H30.6115H30.6205H30.6294C31.2739 30.3163 31.9005 30.0312 32.4375 29.5947L33.8428 31.314C33.0641 31.9465 32.1869 32.3653 31.265 32.5791H31.256C31.2381 32.588 31.2112 32.588 31.2023 32.5969C31.1933 32.5969 31.1844 32.5969 31.1754 32.6058H31.1665C31.1575 32.6058 31.1575 32.6058 31.1486 32.6058C30.0745 32.8285 29.0004 32.7661 28.0158 32.4722C28.0158 32.4722 28.0158 32.4722 28.0068 32.4722H27.9979C27.9889 32.4722 27.9889 32.4722 27.98 32.4633H27.971C27.9441 32.4543 27.9262 32.4454 27.8994 32.4454C27.8904 32.4454 27.8815 32.4365 27.8725 32.4365L27.8546 32.4276L27.8278 32.4187C27.8009 32.4098 27.7741 32.4009 27.7472 32.392C26.6731 32.0178 25.6975 31.3497 24.9277 30.4143C24.8561 30.3252 24.7845 30.2272 24.7129 30.1381C24.7129 30.1292 24.7039 30.1292 24.7039 30.1203C24.695 30.1114 24.695 30.1114 24.695 30.1025C24.6681 30.0668 24.6502 30.0401 24.6233 30.0045C24.6144 29.9955 24.6144 29.9866 24.6054 29.9777V36H22.2334V30.2094C22.1797 30.2806 22.126 30.343 22.0723 30.4143C21.3025 31.3586 20.3269 32.0178 19.2528 32.392C19.2528 32.392 19.2528 32.392 19.2438 32.392C19.217 32.4009 19.1901 32.4098 19.1633 32.4187L19.1454 32.4276C19.1364 32.4276 19.1275 32.4365 19.1185 32.4365C19.1096 32.4365 19.1006 32.4454 19.0917 32.4454C19.0648 32.4543 19.0469 32.4633 19.0201 32.4633H19.0111C19.0021 32.4633 19.0022 32.4633 18.9932 32.4722H18.9842H18.9753C17.9907 32.7751 16.9166 32.8285 15.8425 32.6058H15.8335C15.8246 32.6058 15.8246 32.6058 15.8156 32.6058C15.8067 32.6058 15.7977 32.6058 15.7888 32.5969C15.7798 32.588 15.7619 32.588 15.7351 32.5791C15.7351 32.5791 15.7351 32.5791 15.7261 32.5791C14.8131 32.3653 13.927 31.9465 13.1482 31.314L14.5535 29.5947C15.0995 30.0401 15.7172 30.3163 16.3616 30.441C16.3706 30.441 16.3706 30.441 16.3795 30.441C16.3885 30.441 16.3885 30.441 16.3974 30.441C16.9792 30.5479 17.5879 30.5301 18.1608 30.3875H18.1697C18.2234 30.3697 18.2771 30.3608 18.3219 30.343C18.3308 30.343 18.3398 30.3341 18.3487 30.3341H18.3577C18.3666 30.3341 18.3756 30.3252 18.3845 30.3252C18.4024 30.3163 18.4114 30.3163 18.4293 30.3073H18.4382C18.4561 30.2984 18.474 30.2984 18.4919 30.2895C18.5277 30.2806 18.5636 30.2628 18.5994 30.245L18.6531 30.2272C18.7068 30.2094 18.7605 30.1826 18.8052 30.1648C19.3512 29.9243 19.8346 29.5679 20.2374 29.1225L20.2463 29.1047C20.2821 29.0601 20.3269 29.0156 20.3627 28.971C20.3627 28.971 20.3627 28.971 20.3627 28.9621L20.3716 28.9532C20.3716 28.9532 20.3716 28.9532 20.3806 28.9443V28.9354C20.3895 28.9265 20.3895 28.9176 20.3985 28.9087C20.4074 28.8998 20.4164 28.882 20.4254 28.8731C20.4433 28.8463 20.4612 28.8285 20.4791 28.8018C20.497 28.7751 20.5149 28.7483 20.5328 28.7216C20.5417 28.7038 20.5507 28.6949 20.5596 28.6771C20.5686 28.6592 20.5775 28.6503 20.5865 28.6325C20.6044 28.6147 20.6133 28.588 20.6223 28.5702C20.6223 28.5612 20.6312 28.5612 20.6312 28.5523C20.6312 28.5434 20.6402 28.5434 20.6402 28.5345C20.6581 28.5078 20.667 28.49 20.6849 28.4633C20.6939 28.4454 20.7028 28.4365 20.7118 28.4187C20.7207 28.4009 20.7297 28.392 20.7386 28.3742C20.7476 28.3563 20.7565 28.3474 20.7655 28.3296C20.7744 28.3118 20.7834 28.3029 20.7923 28.2851C20.7923 28.2851 20.7923 28.2851 20.7923 28.2762C20.7923 28.2673 20.8013 28.2584 20.8102 28.2494C20.8371 28.2049 20.8639 28.1514 20.8819 28.098C20.8819 28.098 20.8819 28.098 20.8819 28.0891C20.9087 28.0267 20.9356 27.9733 20.9624 27.9109C20.9714 27.902 20.9714 27.8842 20.9803 27.8753C20.9982 27.8218 21.0161 27.7773 21.034 27.7238C21.043 27.6971 21.0519 27.6704 21.0609 27.6437C21.0609 27.6347 21.0609 27.6347 21.0698 27.6258V27.6169C21.0788 27.5902 21.0877 27.5635 21.0967 27.5367H18.4293V25.167H21.0788C21.0251 24.98 20.9535 24.8018 20.8729 24.6236C20.8729 24.6147 20.8639 24.6058 20.8639 24.6058C20.846 24.5612 20.8192 24.5167 20.8013 24.4722C20.7923 24.4633 20.7923 24.4454 20.7834 24.4365C20.7744 24.4276 20.7744 24.4098 20.7655 24.4009C20.7565 24.3831 20.7476 24.3742 20.7386 24.3563C20.7297 24.3385 20.7207 24.3296 20.7118 24.3118C20.6939 24.2762 20.676 24.2405 20.6491 24.2138C20.6402 24.196 20.6223 24.1693 20.6133 24.1514C20.6133 24.1425 20.6044 24.1425 20.6044 24.1336C20.6044 24.1247 20.5954 24.1247 20.5954 24.1158L20.5865 24.1069C20.5686 24.0802 20.5596 24.0624 20.5417 24.0356C20.5328 24.0267 20.5328 24.0178 20.5238 24.0089C20.5149 24 20.5059 23.9822 20.497 23.9733L20.488 23.9644C20.488 23.9644 20.488 23.9644 20.488 23.9555L20.4791 23.9465V23.9376C20.4612 23.9198 20.4522 23.8931 20.4343 23.8753C20.4343 23.8664 20.4254 23.8664 20.4254 23.8575L20.4164 23.8486C20.4164 23.8396 20.4074 23.8396 20.4074 23.8307C20.3269 23.7416 20.2553 23.6526 20.1747 23.5546C20.0405 23.412 19.9062 23.2784 19.7451 23.1537C19.3691 22.8508 18.9574 22.6192 18.5277 22.4677C18.5188 22.4677 18.5098 22.4588 18.5098 22.4588C18.5009 22.4588 18.4919 22.4499 18.4919 22.4499C18.4651 22.441 18.4382 22.4321 18.4114 22.4232C18.3935 22.4232 18.3845 22.4143 18.3666 22.4143C18.3577 22.4143 18.3398 22.4053 18.3308 22.4053C18.3219 22.4053 18.304 22.3964 18.295 22.3964C18.2503 22.3875 18.2055 22.3697 18.1697 22.3608C18.1608 22.3608 18.1518 22.3519 18.1429 22.3519C18.1339 22.3519 18.125 22.343 18.1071 22.343C18.0444 22.3252 17.9907 22.3163 17.928 22.3074C17.0777 22.147 16.2005 22.2628 15.4218 22.6192C15.4218 22.6192 15.4128 22.6192 15.4128 22.6281C15.4128 22.6281 15.4039 22.6281 15.4039 22.637C15.3591 22.6548 15.3144 22.6815 15.2786 22.6993C15.2696 22.6993 15.2696 22.7082 15.2607 22.7082C15.2428 22.7171 15.2248 22.7261 15.2069 22.735C15.189 22.7439 15.1622 22.7617 15.1443 22.7706H15.1353L15.1264 22.7795C15.0906 22.7973 15.0548 22.8241 15.019 22.8419C15.01 22.8508 15.0011 22.8508 14.9921 22.8597C14.9832 22.8686 14.9742 22.8686 14.9653 22.8775C14.9295 22.9042 14.8937 22.922 14.8579 22.9488H14.8489C14.84 22.9577 14.831 22.9666 14.8221 22.9666C14.8131 22.9755 14.8042 22.9844 14.7952 22.9844C14.7684 23.0022 14.7415 23.02 14.7146 23.0468L14.7057 23.0557L14.6967 23.0646C14.6788 23.0735 14.6699 23.0824 14.6609 23.0913C14.652 23.1002 14.6341 23.1091 14.6251 23.118L14.6162 23.1269C14.6072 23.1359 14.5983 23.1359 14.5893 23.1448C14.5804 23.1537 14.5625 23.1626 14.5535 23.1715C14.5177 23.1982 14.4819 23.2339 14.4461 23.2606C14.4372 23.2695 14.4372 23.2695 14.4282 23.2784C14.4193 23.2873 14.4193 23.2873 14.4103 23.2962C14.2581 23.4298 14.1239 23.5813 13.9896 23.7416C13.5958 24.2227 13.3093 24.7929 13.1661 25.4165L11 24.9176C11.2954 23.6437 11.9578 22.5212 12.8976 21.6659C12.9155 21.6481 12.9424 21.6303 12.9603 21.6125C12.9782 21.5947 13.005 21.5768 13.0229 21.559C13.0319 21.5501 13.0408 21.5412 13.0498 21.5323L13.0587 21.5234C13.0677 21.5145 13.0856 21.4967 13.0945 21.4878C13.1572 21.4343 13.2288 21.3719 13.3004 21.3185C13.551 21.1225 13.8106 20.9532 14.0791 20.8018L14.0881 20.7929C14.0881 20.7929 14.097 20.7929 14.097 20.784C14.1686 20.7394 14.2492 20.7038 14.3208 20.6682C14.3387 20.6592 14.3566 20.6503 14.3745 20.6414C14.3924 20.6325 14.4103 20.6236 14.4282 20.6147C14.4551 20.6058 14.473 20.588 14.4998 20.5791C15.6366 20.0535 16.8897 19.8753 18.1339 20.0713C17.8027 19.1982 17.5969 18.2539 17.5969 17.2918C17.5969 15.1804 18.5725 13.2739 19.6287 11.8218C20.6939 10.3519 21.9381 9.22049 22.6899 8.60579L23.5045 8ZM23.5045 11.3853C22.9495 11.9109 22.3051 12.5969 21.7322 13.3808C20.8281 14.6281 20.1926 16 20.1926 17.3363C20.1926 18.6281 20.7834 20 21.6516 21.2383C22.2603 22.1025 22.9406 22.8151 23.5224 23.3229C24.1042 22.8419 24.7755 22.147 25.3484 21.3007C26.1719 20.098 26.7 18.735 26.6284 17.4076C26.5478 15.902 25.9033 14.4766 25.0619 13.2561C24.5607 12.4989 23.9968 11.8664 23.5045 11.3853ZM12.7723 28.1514L14.2223 26.3786L15.9946 27.8218L14.5446 29.5947L12.7723 28.1514Z" fill="white"/>
<path fill-rule="evenodd" clip-rule="evenodd" d="M23 46C35.7025 46 46 35.7025 46 23C46 10.2975 35.7025 0 23 0C10.2975 0 0 10.2975 0 23C0 35.7025 10.2975 46 23 46ZM23 44C34.598 44 44 34.598 44 23C44 11.402 34.598 2 23 2C11.402 2 2 11.402 2 23C2 34.598 11.402 44 23 44Z" fill="#878E9F"/>
</svg>
