<svg width="46" height="46" viewBox="0 0 46 46" fill="none" xmlns="http://www.w3.org/2000/svg">
<path fill-rule="evenodd" clip-rule="evenodd" d="M23.5038 10L24.188 10.5574C24.812 11.0614 25.782 12.0083 26.6241 13.2529C27.4586 14.49 28.2256 16.1088 28.3158 17.9415C28.3609 18.7967 28.2256 19.6214 27.9774 20.3926C29.0301 20.217 30.0977 20.3697 31.0602 20.8202C31.0827 20.8279 31.0977 20.8355 31.1203 20.8508C31.1353 20.8584 31.1504 20.8661 31.1654 20.8737C31.1805 20.8813 31.1955 20.889 31.2105 20.8966C31.2707 20.9271 31.3383 20.9653 31.3985 20.9959L31.406 21.0035C31.4135 21.0035 31.4135 21.0035 31.4135 21.0111C31.6391 21.1409 31.8571 21.286 32.0677 21.454C32.1278 21.4998 32.1805 21.5457 32.2406 21.5991C32.2481 21.6067 32.2632 21.6144 32.2707 21.6297C32.2782 21.6373 32.2932 21.6449 32.3008 21.6526C32.3158 21.6678 32.3383 21.6831 32.3534 21.6984C32.3684 21.7136 32.391 21.7289 32.406 21.7442C33.1955 22.4849 33.7594 23.447 34 24.5313L32.1805 24.959C32.0602 24.4244 31.8196 23.9357 31.4887 23.5234C31.3759 23.3859 31.2632 23.2561 31.1353 23.1416C31.1353 23.1416 31.1278 23.1416 31.1278 23.1339L31.1203 23.1263L31.1128 23.1187L31.1053 23.111C31.0752 23.0881 31.0451 23.0576 31.015 23.0347C31.0075 23.027 31 23.0194 30.985 23.0118L30.9699 23.0041L30.9549 22.9965L30.9474 22.9889C30.9399 22.9812 30.9248 22.9736 30.9173 22.966C30.9098 22.9583 30.9098 22.9583 30.9023 22.9507C30.8947 22.943 30.8947 22.943 30.8872 22.9354L30.8797 22.9278C30.8571 22.9125 30.8346 22.8896 30.812 22.8743L30.8045 22.8667C30.797 22.8591 30.797 22.8591 30.7895 22.8514C30.7895 22.8514 30.782 22.8514 30.782 22.8438L30.7744 22.8361L30.7669 22.8285C30.7368 22.8056 30.7068 22.7827 30.6692 22.7674C30.6617 22.7598 30.6541 22.7598 30.6466 22.7521C30.6391 22.7445 30.6316 22.7445 30.6241 22.7369C30.594 22.7216 30.5639 22.6987 30.5338 22.6834C30.5338 22.6834 30.5263 22.6834 30.5263 22.6758C30.5263 22.6758 30.5263 22.6758 30.5188 22.6758C30.5038 22.6682 30.4812 22.6529 30.4662 22.6452C30.4511 22.6376 30.4361 22.63 30.4211 22.6223C30.4135 22.6223 30.4135 22.6147 30.406 22.6147C30.3684 22.5918 30.3384 22.5765 30.3008 22.5612C30.3008 22.5612 30.2932 22.5612 30.2932 22.5536C30.2932 22.5536 30.2932 22.5536 30.2857 22.5536C29.6316 22.2405 28.8872 22.1489 28.1805 22.2864C28.1278 22.294 28.0752 22.3093 28.0301 22.3169C28.0226 22.3169 28.015 22.3245 28.0075 22.3245C28 22.3245 27.9925 22.3322 27.985 22.3322C27.9474 22.3398 27.9098 22.3551 27.8797 22.3627C27.8722 22.3627 27.8571 22.3703 27.8496 22.3703C27.8421 22.3703 27.8271 22.378 27.8196 22.378C27.812 22.378 27.8045 22.378 27.8045 22.3856C27.797 22.3856 27.7895 22.3856 27.7895 22.3933C27.7669 22.4009 27.7444 22.4085 27.7218 22.4162C27.7143 22.4162 27.7068 22.4238 27.7068 22.4238C27.7068 22.4238 27.6992 22.4238 27.6992 22.4314H27.6917C27.3308 22.5612 26.985 22.7598 26.6692 23.0194C26.6316 23.05 26.6015 23.0805 26.5639 23.111C26.3534 23.3936 26.1353 23.6608 25.9098 23.9052L25.9023 23.9128C25.8872 23.9434 25.8722 23.9663 25.8496 23.9968C25.8421 24.0121 25.8346 24.0197 25.8271 24.035C25.8195 24.0503 25.812 24.0579 25.8045 24.0732C25.797 24.0808 25.797 24.0961 25.7895 24.1037V24.1114C25.782 24.119 25.782 24.1266 25.7744 24.1343C25.7519 24.1724 25.7368 24.2106 25.7218 24.2488C25.7218 24.2564 25.7143 24.2641 25.7143 24.2641C25.6466 24.4168 25.5865 24.5695 25.5414 24.7299H27.5639V26.7611H25.5038C25.5113 26.784 25.5188 26.8069 25.5263 26.8298V26.8374C25.5263 26.8451 25.5263 26.8451 25.5338 26.8527C25.5414 26.8756 25.5489 26.8985 25.5564 26.9214C25.5714 26.9672 25.5865 27.013 25.6015 27.0512C25.6015 27.0589 25.609 27.0741 25.6165 27.0818C25.6391 27.1352 25.6541 27.181 25.6842 27.2345C25.6842 27.2345 25.6842 27.2345 25.6842 27.2421C25.6842 27.2421 25.6842 27.2421 25.6842 27.2498C25.7068 27.2956 25.7218 27.3338 25.7444 27.3796C25.7519 27.3872 25.7519 27.3948 25.7594 27.4025C25.7594 27.4025 25.7594 27.4025 25.7594 27.4101C25.7669 27.4254 25.7744 27.433 25.782 27.4483C25.782 27.4559 25.7895 27.4636 25.7895 27.4636C25.7895 27.4712 25.797 27.4788 25.797 27.4788C25.8045 27.4941 25.812 27.5017 25.8195 27.517C25.8271 27.5323 25.8346 27.5399 25.8421 27.5552C25.8571 27.5781 25.8647 27.601 25.8797 27.6163C25.8872 27.6239 25.8947 27.6392 25.8947 27.6468C25.9023 27.6621 25.9173 27.685 25.9323 27.7003C25.9398 27.7156 25.9474 27.7232 25.9549 27.7385L25.9624 27.7461C25.9699 27.7537 25.9774 27.7614 25.9774 27.769C25.9925 27.7919 26.0075 27.8148 26.0226 27.8377C26.0376 27.8606 26.0526 27.8759 26.0677 27.8988L26.0752 27.9065C26.0827 27.9141 26.0827 27.9217 26.0902 27.9294C26.0902 27.937 26.0977 27.937 26.0977 27.9446L26.1053 27.9523C26.1128 27.9599 26.1128 27.9675 26.1203 27.9752C26.1504 28.0134 26.1805 28.0515 26.218 28.0897L26.2256 28.105C26.5564 28.4868 26.9699 28.7922 27.4286 28.9984C27.4737 29.0213 27.5188 29.0366 27.5564 29.0519L27.6015 29.0671C27.6316 29.0824 27.6617 29.09 27.6917 29.1053C27.7068 29.1129 27.7218 29.1129 27.7368 29.1206H27.7444C27.7594 29.1282 27.7669 29.1282 27.782 29.1359C27.782 29.1359 27.782 29.1359 27.7895 29.1359C27.7895 29.1359 27.7895 29.1359 27.797 29.1359C27.8045 29.1359 27.8045 29.1359 27.812 29.1435C27.8195 29.1435 27.8271 29.1511 27.8346 29.1511C27.8797 29.1664 27.9248 29.174 27.9624 29.1893C27.9624 29.1893 27.9624 29.1893 27.9699 29.1893C27.9699 29.1893 27.9699 29.1893 27.9774 29.1893C28.4586 29.3115 28.9624 29.3268 29.4586 29.2351H29.4662H29.4737H29.4812H29.4887C30.0301 29.1282 30.5564 28.8839 31.0075 28.5097L32.188 29.9835C31.5338 30.5256 30.797 30.8845 30.0226 31.0678H30.015C30 31.0754 29.9774 31.0754 29.9699 31.083C29.9624 31.083 29.9549 31.083 29.9474 31.0907H29.9398C29.9323 31.0907 29.9323 31.0907 29.9248 31.0907C29.0226 31.2816 28.1203 31.2281 27.2932 30.9761C27.2932 30.9761 27.2932 30.9761 27.2857 30.9761H27.2782C27.2707 30.9761 27.2707 30.9761 27.2632 30.9685H27.2556C27.2331 30.9609 27.218 30.9532 27.1955 30.9532C27.188 30.9532 27.1805 30.9456 27.1729 30.9456L27.1579 30.938L27.1353 30.9303C27.1128 30.9227 27.0902 30.915 27.0677 30.9074C26.1654 30.5867 25.3459 30.014 24.6992 29.2122C24.6391 29.1359 24.5789 29.0519 24.5188 28.9755C24.5188 28.9679 24.5113 28.9679 24.5113 28.9602C24.5038 28.9526 24.5038 28.9526 24.5038 28.945C24.4812 28.9144 24.4662 28.8915 24.4436 28.861C24.4361 28.8533 24.4361 28.8457 24.4286 28.8381V34H22.4361V29.0366C22.391 29.0977 22.3459 29.1511 22.3008 29.2122C21.6541 30.0216 20.8346 30.5867 19.9323 30.9074C19.9323 30.9074 19.9323 30.9074 19.9248 30.9074C19.9023 30.915 19.8797 30.9227 19.8571 30.9303L19.8421 30.938C19.8346 30.938 19.8271 30.9456 19.8196 30.9456C19.812 30.9456 19.8045 30.9532 19.797 30.9532C19.7744 30.9609 19.7594 30.9685 19.7368 30.9685H19.7293C19.7218 30.9685 19.7218 30.9685 19.7143 30.9761H19.7068H19.6992C18.8722 31.2358 17.9699 31.2816 17.0677 31.0907H17.0602C17.0526 31.0907 17.0526 31.0907 17.0451 31.0907C17.0376 31.0907 17.0301 31.0907 17.0226 31.083C17.015 31.0754 17 31.0754 16.9774 31.0678C16.9774 31.0678 16.9774 31.0678 16.9699 31.0678C16.203 30.8845 15.4586 30.5256 14.8045 29.9835L15.985 28.5097C16.4436 28.8915 16.9624 29.1282 17.5038 29.2351C17.5113 29.2351 17.5113 29.2351 17.5188 29.2351C17.5263 29.2351 17.5263 29.2351 17.5338 29.2351C18.0226 29.3268 18.5338 29.3115 19.015 29.1893H19.0226C19.0677 29.174 19.1128 29.1664 19.1504 29.1511C19.1579 29.1511 19.1654 29.1435 19.1729 29.1435H19.1805C19.188 29.1435 19.1955 29.1359 19.203 29.1359C19.218 29.1282 19.2256 29.1282 19.2406 29.1206H19.2481C19.2632 29.1129 19.2782 29.1129 19.2932 29.1053C19.3233 29.0977 19.3534 29.0824 19.3835 29.0671L19.4286 29.0519C19.4737 29.0366 19.5188 29.0137 19.5564 28.9984C20.015 28.7922 20.4211 28.4868 20.7594 28.105L20.7669 28.0897C20.797 28.0515 20.8346 28.0134 20.8647 27.9752C20.8647 27.9752 20.8647 27.9752 20.8647 27.9675L20.8722 27.9599C20.8722 27.9599 20.8722 27.9599 20.8797 27.9523V27.9446C20.8872 27.937 20.8872 27.9294 20.8947 27.9217C20.9023 27.9141 20.9098 27.8988 20.9173 27.8912C20.9323 27.8683 20.9474 27.853 20.9624 27.8301C20.9774 27.8072 20.9925 27.7843 21.0075 27.7614C21.015 27.7461 21.0226 27.7385 21.0301 27.7232C21.0376 27.7079 21.0451 27.7003 21.0526 27.685C21.0677 27.6697 21.0752 27.6468 21.0827 27.6316C21.0827 27.6239 21.0902 27.6239 21.0902 27.6163C21.0902 27.6087 21.0977 27.6087 21.0977 27.601C21.1128 27.5781 21.1203 27.5628 21.1353 27.5399C21.1429 27.5247 21.1504 27.517 21.1579 27.5017C21.1654 27.4865 21.1729 27.4788 21.1805 27.4636C21.188 27.4483 21.1955 27.4407 21.203 27.4254C21.2105 27.4101 21.218 27.4025 21.2256 27.3872C21.2256 27.3872 21.2256 27.3872 21.2256 27.3796C21.2256 27.3719 21.2331 27.3643 21.2406 27.3567C21.2632 27.3185 21.2857 27.2727 21.3008 27.2269C21.3008 27.2269 21.3008 27.2269 21.3008 27.2192C21.3233 27.1658 21.3459 27.1199 21.3684 27.0665C21.3759 27.0589 21.3759 27.0436 21.3835 27.036C21.3985 26.9901 21.4135 26.952 21.4286 26.9061C21.4361 26.8832 21.4436 26.8603 21.4511 26.8374C21.4511 26.8298 21.4511 26.8298 21.4586 26.8221V26.8145C21.4662 26.7916 21.4737 26.7687 21.4812 26.7458H19.2406V24.7146H21.4662C21.4211 24.5542 21.3609 24.4015 21.2932 24.2488C21.2932 24.2412 21.2857 24.2335 21.2857 24.2335C21.2707 24.1954 21.2481 24.1572 21.2331 24.119C21.2256 24.1114 21.2256 24.0961 21.218 24.0885C21.2105 24.0808 21.2105 24.0655 21.203 24.0579C21.1955 24.0426 21.188 24.035 21.1805 24.0197C21.1729 24.0045 21.1654 23.9968 21.1579 23.9815C21.1429 23.951 21.1278 23.9205 21.1053 23.8976C21.0977 23.8823 21.0827 23.8594 21.0752 23.8441C21.0752 23.8365 21.0677 23.8365 21.0677 23.8288C21.0677 23.8212 21.0602 23.8212 21.0602 23.8136L21.0526 23.8059C21.0376 23.783 21.0301 23.7677 21.015 23.7448C21.0075 23.7372 21.0075 23.7296 21 23.7219C20.9925 23.7143 20.985 23.699 20.9774 23.6914L20.9699 23.6837C20.9699 23.6837 20.9699 23.6837 20.9699 23.6761L20.9624 23.6685V23.6608C20.9474 23.6456 20.9399 23.6227 20.9248 23.6074C20.9248 23.5997 20.9173 23.5997 20.9173 23.5921L20.9098 23.5845C20.9098 23.5768 20.9023 23.5768 20.9023 23.5692C20.8346 23.4928 20.7744 23.4165 20.7068 23.3325C20.594 23.2103 20.4812 23.0958 20.3459 22.9889C20.0301 22.7292 19.6842 22.5307 19.3233 22.4009C19.3158 22.4009 19.3083 22.3933 19.3083 22.3933C19.3008 22.3933 19.2932 22.3856 19.2932 22.3856C19.2707 22.378 19.2481 22.3703 19.2256 22.3627C19.2105 22.3627 19.203 22.3551 19.188 22.3551C19.1805 22.3551 19.1654 22.3474 19.1579 22.3474C19.1504 22.3474 19.1353 22.3398 19.1278 22.3398C19.0902 22.3322 19.0526 22.3169 19.0226 22.3093C19.015 22.3093 19.0075 22.3016 19 22.3016C18.9925 22.3016 18.985 22.294 18.9699 22.294C18.9173 22.2787 18.8722 22.2711 18.8196 22.2634C18.1053 22.126 17.3684 22.2253 16.7143 22.5307C16.7143 22.5307 16.7068 22.5307 16.7068 22.5383C16.7068 22.5383 16.6992 22.5383 16.6992 22.546C16.6617 22.5612 16.6241 22.5842 16.594 22.5994C16.5865 22.5994 16.5865 22.6071 16.5789 22.6071C16.5639 22.6147 16.5489 22.6223 16.5338 22.63C16.5188 22.6376 16.4962 22.6529 16.4812 22.6605H16.4737L16.4662 22.6682C16.4361 22.6834 16.406 22.7063 16.3759 22.7216C16.3684 22.7292 16.3609 22.7292 16.3534 22.7369C16.3459 22.7445 16.3383 22.7445 16.3308 22.7521C16.3008 22.7751 16.2707 22.7903 16.2406 22.8132H16.2331C16.2256 22.8209 16.218 22.8285 16.2105 22.8285C16.203 22.8361 16.1955 22.8438 16.188 22.8438C16.1654 22.8591 16.1429 22.8743 16.1203 22.8972L16.1128 22.9049L16.1053 22.9125C16.0902 22.9201 16.0827 22.9278 16.0752 22.9354C16.0677 22.943 16.0526 22.9507 16.0451 22.9583L16.0376 22.966C16.0301 22.9736 16.0226 22.9736 16.015 22.9812C16.0075 22.9889 15.9925 22.9965 15.985 23.0041C15.9549 23.027 15.9248 23.0576 15.8947 23.0805C15.8872 23.0881 15.8872 23.0881 15.8797 23.0958C15.8722 23.1034 15.8722 23.1034 15.8647 23.111C15.7368 23.2256 15.6241 23.3554 15.5113 23.4928C15.1805 23.9052 14.9399 24.3939 14.8195 24.9284L13 24.5008C13.2481 23.4088 13.8045 22.4467 14.594 21.7136C14.609 21.6984 14.6316 21.6831 14.6466 21.6678C14.6617 21.6526 14.6842 21.6373 14.6992 21.622C14.7068 21.6144 14.7143 21.6067 14.7218 21.5991L14.7293 21.5915C14.7368 21.5838 14.7519 21.5686 14.7594 21.5609C14.812 21.5151 14.8722 21.4617 14.9323 21.4158C15.1429 21.2479 15.3609 21.1028 15.5865 20.973L15.594 20.9653C15.594 20.9653 15.6015 20.9653 15.6015 20.9577C15.6617 20.9195 15.7293 20.889 15.7895 20.8584C15.8045 20.8508 15.8196 20.8431 15.8346 20.8355C15.8496 20.8279 15.8647 20.8202 15.8797 20.8126C15.9023 20.805 15.9173 20.7897 15.9399 20.7821C16.8947 20.3315 17.9474 20.1788 18.9925 20.3468C18.7143 19.5985 18.5414 18.7891 18.5414 17.9644C18.5414 16.1546 19.3609 14.5205 20.2481 13.2759C21.1429 12.0159 22.188 11.0461 22.8195 10.5192L23.5038 10ZM23.5038 12.9017C23.0376 13.3522 22.4962 13.9402 22.015 14.6122C21.2556 15.6812 20.7218 16.8571 20.7218 18.0025C20.7218 19.1098 21.218 20.2857 21.9474 21.3471C22.4586 22.0878 23.0301 22.6987 23.5188 23.1339C24.0075 22.7216 24.5714 22.126 25.0526 21.4006C25.7444 20.3697 26.188 19.2014 26.1278 18.0636C26.0602 16.7731 25.5188 15.5514 24.812 14.5052C24.391 13.8562 23.9173 13.314 23.5038 12.9017ZM14.4887 27.2727L15.7068 25.7531L17.1955 26.9901L15.9774 28.5097L14.4887 27.2727Z" fill="white"/>
<path fill-rule="evenodd" clip-rule="evenodd" d="M23 46C35.7025 46 46 35.7025 46 23C46 10.2975 35.7025 0 23 0C10.2975 0 0 10.2975 0 23C0 35.7025 10.2975 46 23 46ZM23 44C34.598 44 44 34.598 44 23C44 11.402 34.598 2 23 2C11.402 2 2 11.402 2 23C2 34.598 11.402 44 23 44Z" fill="#878E9F"/>
<circle cx="23" cy="23" r="17.3" stroke="#0237BF" stroke-width="1.4" stroke-dasharray="6 6"/>
</svg>
