<svg width="1190" height="820" viewBox="0 0 1190 820" fill="none" xmlns="http://www.w3.org/2000/svg">
<g opacity="0.36">
<g filter="url(#filter0_b_9014_508)">
<path d="M357.132 136.199C470.56 136.199 562.512 228.151 562.512 341.579C562.512 455.008 470.56 546.96 357.132 546.96C243.703 546.96 151.751 455.008 151.751 341.579C151.751 228.151 243.703 136.199 357.132 136.199ZM357.132 194.879C276.111 194.879 210.431 260.559 210.431 341.579C210.431 422.6 276.111 488.28 357.132 488.28C438.152 488.28 503.832 422.6 503.832 341.579C503.832 260.559 438.152 194.879 357.132 194.879Z" fill="#070605" fill-opacity="0.82"/>
<path d="M357.132 137.199C470.008 137.199 561.512 228.703 561.512 341.579C561.512 454.456 470.008 545.96 357.132 545.96C244.255 545.96 152.751 454.456 152.751 341.579C152.751 228.703 244.255 137.199 357.132 137.199ZM357.132 193.879C275.559 193.879 209.431 260.007 209.431 341.579C209.431 423.152 275.559 489.28 357.132 489.28C438.704 489.28 504.832 423.152 504.832 341.579C504.832 260.007 438.704 193.879 357.132 193.879Z" stroke="url(#paint0_linear_9014_508)" stroke-width="2"/>
</g>
<g filter="url(#filter1_b_9014_508)">
<path d="M348.933 128C462.362 128 554.314 219.952 554.314 333.381C554.314 446.809 462.362 538.761 348.933 538.761C235.505 538.761 143.553 446.809 143.553 333.381C143.553 219.952 235.505 128 348.933 128ZM348.933 186.68C267.913 186.68 202.233 252.36 202.233 333.381C202.233 414.401 267.913 480.081 348.933 480.081C429.954 480.081 495.634 414.401 495.634 333.381C495.634 252.36 429.954 186.68 348.933 186.68Z" fill="#110F0F"/>
</g>
<g filter="url(#filter2_b_9014_508)">
<path d="M213.579 282.932C326.455 282.932 417.959 374.436 417.959 487.313C417.959 600.189 326.455 691.693 213.579 691.693C100.703 691.693 9.19824 600.189 9.19824 487.313C9.19824 374.436 100.703 282.932 213.579 282.932ZM213.579 339.612C132.006 339.612 65.8784 405.74 65.8784 487.313C65.8784 568.885 132.006 635.013 213.579 635.013C295.152 635.013 361.279 568.885 361.279 487.313C361.279 405.74 295.152 339.612 213.579 339.612Z" fill="#070605" fill-opacity="0.82" stroke="url(#paint1_linear_9014_508)" stroke-width="2"/>
<g filter="url(#filter3_b_9014_508)">
<path d="M205.381 273.733C318.809 273.733 410.761 365.685 410.761 479.114C410.761 592.542 318.809 684.494 205.381 684.494C91.952 684.494 0 592.542 0 479.114C0 365.685 91.952 273.733 205.381 273.733ZM205.381 332.413C124.36 332.413 58.6802 398.093 58.6802 479.114C58.6802 560.134 124.36 625.814 205.381 625.814C286.401 625.814 352.081 560.134 352.081 479.114C352.081 398.093 286.401 332.413 205.381 332.413Z" fill="#110F0F"/>
</g>
</g>
</g>
<g opacity="0.36">
<g filter="url(#filter4_b_9014_508)">
<path d="M832.868 137.199C719.992 137.199 628.488 228.703 628.488 341.579C628.488 454.456 719.992 545.96 832.868 545.96C945.745 545.96 1037.25 454.456 1037.25 341.579C1037.25 228.703 945.745 137.199 832.868 137.199ZM832.868 193.879C914.441 193.879 980.569 260.007 980.569 341.579C980.569 423.152 914.441 489.28 832.868 489.28C751.296 489.28 685.168 423.152 685.168 341.579C685.168 260.007 751.296 193.879 832.868 193.879Z" fill="#070605" fill-opacity="0.82" stroke="url(#paint2_linear_9014_508)" stroke-width="2"/>
<g filter="url(#filter5_b_9014_508)">
<path d="M841.067 128C727.638 128 635.686 219.952 635.686 333.381C635.686 446.809 727.638 538.761 841.067 538.761C954.495 538.761 1046.45 446.809 1046.45 333.381C1046.45 219.952 954.495 128 841.067 128ZM841.067 186.68C922.087 186.68 987.767 252.36 987.767 333.381C987.767 414.401 922.087 480.081 841.067 480.081C760.046 480.081 694.366 414.401 694.366 333.381C694.366 252.36 760.046 186.68 841.067 186.68Z" fill="#110F0F"/>
</g>
</g>
<g opacity="0.57">
<g filter="url(#filter6_b_9014_508)">
<path d="M976.421 281.932C862.993 281.932 771.041 373.884 771.041 487.313C771.041 600.741 862.993 692.693 976.421 692.693C1089.85 692.693 1181.8 600.741 1181.8 487.313C1181.8 373.884 1089.85 281.932 976.421 281.932ZM976.421 340.612C1057.44 340.612 1123.12 406.292 1123.12 487.313C1123.12 568.333 1057.44 634.013 976.421 634.013C895.401 634.013 829.721 568.333 829.721 487.313C829.721 406.292 895.401 340.612 976.421 340.612Z" fill="#070605" fill-opacity="0.82"/>
<path d="M976.421 282.932C863.545 282.932 772.041 374.436 772.041 487.313C772.041 600.189 863.545 691.693 976.421 691.693C1089.3 691.693 1180.8 600.189 1180.8 487.313C1180.8 374.436 1089.3 282.932 976.421 282.932ZM976.421 339.612C1057.99 339.612 1124.12 405.74 1124.12 487.313C1124.12 568.885 1057.99 635.013 976.421 635.013C894.848 635.013 828.721 568.885 828.721 487.313C828.721 405.74 894.848 339.612 976.421 339.612Z" stroke="url(#paint3_linear_9014_508)" stroke-width="2"/>
</g>
<g filter="url(#filter7_b_9014_508)">
<path d="M984.619 273.733C871.191 273.733 779.239 365.685 779.239 479.114C779.239 592.542 871.191 684.494 984.619 684.494C1098.05 684.494 1190 592.542 1190 479.114C1190 365.685 1098.05 273.733 984.619 273.733ZM984.619 332.413C1065.64 332.413 1131.32 398.093 1131.32 479.114C1131.32 560.134 1065.64 625.814 984.619 625.814C903.599 625.814 837.919 560.134 837.919 479.114C837.919 398.093 903.599 332.413 984.619 332.413Z" fill="#110F0F"/>
</g>
</g>
</g>
<g opacity="0.08" filter="url(#filter8_f_9014_508)">
<ellipse cx="595" cy="409.5" rx="333" ry="242.5" fill="url(#paint4_linear_9014_508)"/>
</g>
<defs>
<filter id="filter0_b_9014_508" x="146.751" y="131.199" width="420.761" height="420.761" filterUnits="userSpaceOnUse" color-interpolation-filters="sRGB">
<feFlood flood-opacity="0" result="BackgroundImageFix"/>
<feGaussianBlur in="BackgroundImageFix" stdDeviation="2.5"/>
<feComposite in2="SourceAlpha" operator="in" result="effect1_backgroundBlur_9014_508"/>
<feBlend mode="normal" in="SourceGraphic" in2="effect1_backgroundBlur_9014_508" result="shape"/>
</filter>
<filter id="filter1_b_9014_508" x="138.553" y="123" width="420.761" height="420.761" filterUnits="userSpaceOnUse" color-interpolation-filters="sRGB">
<feFlood flood-opacity="0" result="BackgroundImageFix"/>
<feGaussianBlur in="BackgroundImageFix" stdDeviation="2.5"/>
<feComposite in2="SourceAlpha" operator="in" result="effect1_backgroundBlur_9014_508"/>
<feBlend mode="normal" in="SourceGraphic" in2="effect1_backgroundBlur_9014_508" result="shape"/>
</filter>
<filter id="filter2_b_9014_508" x="-5" y="268.733" width="428.959" height="428.96" filterUnits="userSpaceOnUse" color-interpolation-filters="sRGB">
<feFlood flood-opacity="0" result="BackgroundImageFix"/>
<feGaussianBlur in="BackgroundImageFix" stdDeviation="2.5"/>
<feComposite in2="SourceAlpha" operator="in" result="effect1_backgroundBlur_9014_508"/>
<feBlend mode="normal" in="SourceGraphic" in2="effect1_backgroundBlur_9014_508" result="shape"/>
</filter>
<filter id="filter3_b_9014_508" x="-5" y="268.733" width="420.761" height="420.761" filterUnits="userSpaceOnUse" color-interpolation-filters="sRGB">
<feFlood flood-opacity="0" result="BackgroundImageFix"/>
<feGaussianBlur in="BackgroundImageFix" stdDeviation="2.5"/>
<feComposite in2="SourceAlpha" operator="in" result="effect1_backgroundBlur_9014_508"/>
<feBlend mode="normal" in="SourceGraphic" in2="effect1_backgroundBlur_9014_508" result="shape"/>
</filter>
<filter id="filter4_b_9014_508" x="622.488" y="123" width="428.959" height="428.96" filterUnits="userSpaceOnUse" color-interpolation-filters="sRGB">
<feFlood flood-opacity="0" result="BackgroundImageFix"/>
<feGaussianBlur in="BackgroundImageFix" stdDeviation="2.5"/>
<feComposite in2="SourceAlpha" operator="in" result="effect1_backgroundBlur_9014_508"/>
<feBlend mode="normal" in="SourceGraphic" in2="effect1_backgroundBlur_9014_508" result="shape"/>
</filter>
<filter id="filter5_b_9014_508" x="630.687" y="123" width="420.761" height="420.761" filterUnits="userSpaceOnUse" color-interpolation-filters="sRGB">
<feFlood flood-opacity="0" result="BackgroundImageFix"/>
<feGaussianBlur in="BackgroundImageFix" stdDeviation="2.5"/>
<feComposite in2="SourceAlpha" operator="in" result="effect1_backgroundBlur_9014_508"/>
<feBlend mode="normal" in="SourceGraphic" in2="effect1_backgroundBlur_9014_508" result="shape"/>
</filter>
<filter id="filter6_b_9014_508" x="766.041" y="276.932" width="420.761" height="420.761" filterUnits="userSpaceOnUse" color-interpolation-filters="sRGB">
<feFlood flood-opacity="0" result="BackgroundImageFix"/>
<feGaussianBlur in="BackgroundImageFix" stdDeviation="2.5"/>
<feComposite in2="SourceAlpha" operator="in" result="effect1_backgroundBlur_9014_508"/>
<feBlend mode="normal" in="SourceGraphic" in2="effect1_backgroundBlur_9014_508" result="shape"/>
</filter>
<filter id="filter7_b_9014_508" x="774.239" y="268.733" width="420.761" height="420.761" filterUnits="userSpaceOnUse" color-interpolation-filters="sRGB">
<feFlood flood-opacity="0" result="BackgroundImageFix"/>
<feGaussianBlur in="BackgroundImageFix" stdDeviation="2.5"/>
<feComposite in2="SourceAlpha" operator="in" result="effect1_backgroundBlur_9014_508"/>
<feBlend mode="normal" in="SourceGraphic" in2="effect1_backgroundBlur_9014_508" result="shape"/>
</filter>
<filter id="filter8_f_9014_508" x="62" y="-33" width="1066" height="885" filterUnits="userSpaceOnUse" color-interpolation-filters="sRGB">
<feFlood flood-opacity="0" result="BackgroundImageFix"/>
<feBlend mode="normal" in="SourceGraphic" in2="BackgroundImageFix" result="shape"/>
<feGaussianBlur stdDeviation="100" result="effect1_foregroundBlur_9014_508"/>
</filter>
<linearGradient id="paint0_linear_9014_508" x1="241.451" y1="136.199" x2="537.352" y2="772.108" gradientUnits="userSpaceOnUse">
<stop stop-color="#FFCA4C" stop-opacity="0.24"/>
<stop offset="1" stop-color="#C17901" stop-opacity="0"/>
</linearGradient>
<linearGradient id="paint1_linear_9014_508" x1="97.8982" y1="281.932" x2="393.8" y2="917.841" gradientUnits="userSpaceOnUse">
<stop stop-color="#FFCA4C" stop-opacity="0.24"/>
<stop offset="1" stop-color="#C17901" stop-opacity="0"/>
</linearGradient>
<linearGradient id="paint2_linear_9014_508" x1="948.549" y1="136.199" x2="652.648" y2="772.108" gradientUnits="userSpaceOnUse">
<stop stop-color="#FFCA4C" stop-opacity="0.24"/>
<stop offset="1" stop-color="#C17901" stop-opacity="0"/>
</linearGradient>
<linearGradient id="paint3_linear_9014_508" x1="1092.1" y1="281.932" x2="796.2" y2="917.841" gradientUnits="userSpaceOnUse">
<stop stop-color="#FFCA4C" stop-opacity="0.24"/>
<stop offset="1" stop-color="#C17901" stop-opacity="0"/>
</linearGradient>
<linearGradient id="paint4_linear_9014_508" x1="1016.27" y1="637.416" x2="994.995" y2="151.594" gradientUnits="userSpaceOnUse">
<stop stop-color="#CFA552"/>
<stop offset="0.449606" stop-color="#FFF7E1"/>
<stop offset="1" stop-color="#BF9A4D"/>
</linearGradient>
</defs>
</svg>
