<svg width="192" height="192" viewBox="0 0 192 192" fill="none" xmlns="http://www.w3.org/2000/svg">
<rect width="192" height="192" fill="#0A0300"/>
<path d="M48.0141 71.25C61.691 71.25 72.7782 82.3373 72.7782 96.0141C72.7782 109.691 61.691 120.778 48.0141 120.778C34.3373 120.778 23.25 109.691 23.25 96.0141C23.25 82.3373 34.3373 71.25 48.0141 71.25ZM48.0141 78.3255C38.2449 78.3255 30.3255 86.2449 30.3255 96.0141C30.3255 105.783 38.2449 113.703 48.0141 113.703C57.7833 113.703 65.7028 105.783 65.7028 96.0141C65.7028 86.2449 57.7833 78.3255 48.0141 78.3255Z" fill="url(#paint0_linear_2981_5082)"/>
<path fill-rule="evenodd" clip-rule="evenodd" d="M76.3187 96.0142C76.3187 109.691 87.406 120.778 101.083 120.778C114.76 120.778 125.847 109.691 125.847 96.0142H118.787V87.8944H110.65V96.0312H118.771C118.762 105.793 110.846 113.703 101.083 113.703C91.3137 113.703 83.3942 105.783 83.3942 96.0142C83.3942 86.2451 91.3137 78.3256 101.083 78.3256C103.858 78.3256 106.484 78.9646 108.821 80.1036L111.851 73.7075C108.595 72.1329 104.942 71.2501 101.083 71.2501C87.406 71.2501 76.3187 82.3374 76.3187 96.0142Z" fill="url(#paint1_linear_2981_5082)"/>
<path d="M149.141 120.891C153.268 120.891 156.789 120.28 159.704 119.06C162.619 117.839 164.846 116.172 166.385 114.06C167.924 111.947 168.694 109.53 168.694 106.807C168.694 104.647 168.225 102.793 167.288 101.244C166.351 99.6943 165.125 98.3955 163.612 97.347C162.099 96.2986 160.457 95.4535 158.685 94.8119C156.914 94.1703 155.186 93.6617 153.501 93.2862L148.342 92.0656C147.31 91.8308 146.235 91.5296 145.117 91.1619C144 90.7941 142.955 90.3325 141.983 89.7769C141.012 89.2214 140.229 88.529 139.636 87.6996C139.043 86.8702 138.746 85.8843 138.746 84.742C138.746 83.3805 139.18 82.1638 140.049 81.0919C140.917 80.02 142.142 79.1749 143.725 78.5568C145.307 77.9387 147.181 77.6296 149.348 77.6296C152.374 77.6296 154.885 78.2438 156.88 79.4723C158.874 80.7007 160.009 82.426 160.285 84.6481H167.971C167.903 82.066 167.077 79.7774 165.495 77.7822C163.913 75.787 161.751 74.2182 159.008 73.0758C156.265 71.9335 153.105 71.3623 149.528 71.3623C145.986 71.3623 142.805 71.9374 139.984 73.0876C137.164 74.2378 134.929 75.8457 133.278 77.9113C131.627 79.9769 130.802 82.3947 130.802 85.1645C130.802 88.5133 132.035 91.2049 134.503 93.2392C136.971 95.2736 140.32 96.815 144.55 97.8634L150.792 99.4127C152.684 99.8665 154.382 100.391 155.887 100.985C157.391 101.58 158.586 102.331 159.472 103.239C160.358 104.146 160.8 105.312 160.8 106.736C160.8 108.301 160.293 109.666 159.279 110.832C158.264 111.998 156.875 112.906 155.113 113.555C153.35 114.205 151.342 114.529 149.09 114.529C147.043 114.529 145.165 114.252 143.454 113.696C141.743 113.141 140.341 112.288 139.249 111.137C138.157 109.987 137.534 108.544 137.379 106.807H129.383C129.555 109.702 130.458 112.202 132.091 114.306C133.725 116.411 135.986 118.035 138.875 119.177C141.764 120.319 145.186 120.891 149.141 120.891Z" fill="url(#paint2_linear_2981_5082)"/>
<defs>
<linearGradient id="paint0_linear_2981_5082" x1="79.3427" y1="119.289" x2="76.3641" y2="69.7607" gradientUnits="userSpaceOnUse">
<stop stop-color="#CFA552"/>
<stop offset="0.449606" stop-color="#FFF7E1"/>
<stop offset="1" stop-color="#BF9A4D"/>
</linearGradient>
<linearGradient id="paint1_linear_2981_5082" x1="132.411" y1="119.289" x2="129.433" y2="69.7608" gradientUnits="userSpaceOnUse">
<stop stop-color="#CFA552"/>
<stop offset="0.449606" stop-color="#FFF7E1"/>
<stop offset="1" stop-color="#BF9A4D"/>
</linearGradient>
<linearGradient id="paint2_linear_2981_5082" x1="173.904" y1="119.401" x2="170.159" y2="69.9776" gradientUnits="userSpaceOnUse">
<stop stop-color="#CFA552"/>
<stop offset="0.449606" stop-color="#FFF7E1"/>
<stop offset="1" stop-color="#BF9A4D"/>
</linearGradient>
</defs>
</svg>
