<svg width="512" height="512" viewBox="0 0 512 512" fill="none" xmlns="http://www.w3.org/2000/svg">
<rect width="512" height="512" fill="#0A0300"/>
<path d="M181.887 197.183C181.902 197.3 181.902 197.417 181.887 197.534L177.872 228.382C177.776 229.126 177.094 229.651 176.35 229.554C176.053 229.515 175.777 229.38 175.565 229.168L167.385 220.986L148.996 239.376C165.752 260.325 164.208 286.449 144.364 317.748L143.702 318.783L114.276 289.356L86.4412 292.979C86.3636 292.99 86.2854 292.993 86.2073 292.99L86.0906 292.979C85.3466 292.883 84.822 292.201 84.9188 291.457L88.5418 263.621L59.1758 234.257C90.8499 213.842 117.262 212.032 138.412 228.827L156.819 210.42L148.731 202.334C148.2 201.803 148.2 200.943 148.731 200.412C148.943 200.201 149.219 200.065 149.516 200.026L180.364 196.012C181.108 195.915 181.79 196.439 181.887 197.183ZM139.022 249.351L115.365 273.007L139.672 297.489C146.833 277.089 146.616 261.043 139.022 249.351ZM80.9329 238.326L104.837 262.402L128.419 238.82C116.785 231.374 100.956 231.209 80.9329 238.326Z" fill="url(#paint0_linear_2802_3395)"/>
<path d="M231.939 213.515C256.972 213.515 277.266 233.809 277.266 258.842C277.266 283.876 256.972 304.169 231.939 304.169C206.905 304.169 186.612 283.876 186.612 258.842C186.612 233.809 206.905 213.515 231.939 213.515ZM231.939 226.466C214.058 226.466 199.562 240.961 199.562 258.842C199.562 276.723 214.058 291.219 231.939 291.219C249.82 291.219 264.315 276.723 264.315 258.842C264.315 240.961 249.82 226.466 231.939 226.466Z" fill="white"/>
<path fill-rule="evenodd" clip-rule="evenodd" d="M283.746 258.843C283.746 283.876 304.04 304.169 329.073 304.169C354.106 304.169 374.4 283.876 374.4 258.843H361.477V243.98H346.584V258.874H361.449C361.433 276.74 346.944 291.219 329.073 291.219C311.192 291.219 296.697 276.723 296.697 258.843C296.697 240.962 311.192 226.466 329.073 226.466C334.152 226.466 338.959 227.636 343.237 229.721L348.782 218.013C342.823 215.131 336.137 213.516 329.073 213.516C304.04 213.516 283.746 233.809 283.746 258.843Z" fill="white"/>
<path d="M417.037 304.375C424.591 304.375 431.035 303.258 436.37 301.024C441.705 298.789 445.781 295.739 448.598 291.872C451.415 288.006 452.824 283.58 452.824 278.596C452.824 274.644 451.966 271.25 450.251 268.414C448.535 265.578 446.293 263.201 443.523 261.282C440.753 259.363 437.747 257.816 434.505 256.642C431.263 255.468 428.1 254.537 425.016 253.849L415.573 251.615C413.685 251.186 411.717 250.634 409.671 249.961C407.626 249.288 405.713 248.443 403.935 247.426C402.157 246.409 400.725 245.142 399.639 243.624C398.553 242.106 398.01 240.301 398.01 238.21C398.01 235.719 398.805 233.492 400.394 231.53C401.984 229.568 404.226 228.021 407.122 226.889C410.018 225.758 413.448 225.192 417.414 225.192C422.954 225.192 427.549 226.317 431.2 228.565C434.852 230.813 436.929 233.971 437.433 238.039H451.502C451.376 233.313 449.865 229.124 446.97 225.472C444.074 221.82 440.116 218.948 435.096 216.857C430.075 214.766 424.292 213.721 417.745 213.721C411.261 213.721 405.438 214.774 400.276 216.879C395.114 218.984 391.022 221.927 388.001 225.708C384.979 229.489 383.468 233.914 383.468 238.984C383.468 245.113 385.727 250.04 390.243 253.763C394.76 257.487 400.89 260.308 408.633 262.227L420.058 265.063C423.521 265.893 426.629 266.853 429.383 267.941C432.137 269.03 434.324 270.405 435.945 272.066C437.566 273.727 438.377 275.861 438.377 278.468C438.377 281.332 437.448 283.831 435.591 285.965C433.734 288.099 431.193 289.76 427.966 290.949C424.74 292.137 421.065 292.732 416.942 292.732C413.197 292.732 409.758 292.223 406.626 291.206C403.494 290.19 400.929 288.629 398.931 286.523C396.932 284.418 395.791 281.776 395.508 278.596H380.872C381.186 283.895 382.839 288.471 385.829 292.323C388.819 296.176 392.958 299.148 398.246 301.238C403.534 303.329 409.797 304.375 417.037 304.375Z" fill="white"/>
<defs>
<linearGradient id="paint0_linear_2802_3395" x1="198.164" y1="315.091" x2="190.776" y2="192.308" gradientUnits="userSpaceOnUse">
<stop stop-color="#CFA552"/>
<stop offset="0.449606" stop-color="#FFF7E1"/>
<stop offset="1" stop-color="#BF9A4D"/>
</linearGradient>
</defs>
</svg>
