<svg width="192" height="192" viewBox="0 0 192 192" fill="none" xmlns="http://www.w3.org/2000/svg">
<rect width="192" height="192" fill="#0A0300"/>
<path d="M68.2075 73.9437C68.2132 73.9874 68.2132 74.0315 68.2075 74.0752L66.7021 85.6434C66.6658 85.9224 66.4102 86.1191 66.1312 86.0828C66.0198 86.0683 65.9163 86.0173 65.8368 85.9379L62.7694 82.8698L55.8734 89.7661C62.1571 97.6217 61.5781 107.418 54.1365 119.156L53.8884 119.544L42.8536 108.508L32.4154 109.867C32.3863 109.871 32.357 109.872 32.3278 109.871L32.284 109.867C32.005 109.831 31.8083 109.575 31.8446 109.296L33.2032 98.858L22.1909 87.8462C34.0687 80.1907 43.9733 79.512 51.9047 85.8103L58.8072 78.9076L55.774 75.8751C55.5751 75.6761 55.5751 75.3536 55.774 75.1547C55.8535 75.0752 55.957 75.0242 56.0685 75.0097L67.6367 73.5043C67.9156 73.468 68.1712 73.6647 68.2075 73.9437ZM52.1333 93.5066L43.2617 102.377L52.3769 111.559C55.0623 103.908 54.9811 97.891 52.1333 93.5066ZM30.3498 89.3722L39.3139 98.4009L48.1572 89.5577C43.7943 86.7652 37.8585 86.7034 30.3498 89.3722Z" fill="url(#paint0_linear_2802_3394)"/>
<path d="M86.9771 80.0683C96.3646 80.0683 103.975 87.6784 103.975 97.0659C103.975 106.453 96.3646 114.063 86.9771 114.063C77.5896 114.063 69.9795 106.453 69.9795 97.0659C69.9795 87.6784 77.5896 80.0683 86.9771 80.0683ZM86.9771 84.9248C80.2717 84.9248 74.8359 90.3605 74.8359 97.0659C74.8359 103.771 80.2717 109.207 86.9771 109.207C93.6824 109.207 99.1182 103.771 99.1182 97.0659C99.1182 90.3605 93.6824 84.9248 86.9771 84.9248Z" fill="white"/>
<path fill-rule="evenodd" clip-rule="evenodd" d="M106.405 97.066C106.405 106.453 114.015 114.064 123.402 114.064C132.79 114.064 140.4 106.453 140.4 97.066H135.554V91.4927H129.969V97.0776H135.543C135.537 103.778 130.104 109.207 123.402 109.207C116.697 109.207 111.261 103.771 111.261 97.066C111.261 90.3606 116.697 84.9248 123.402 84.9248C125.307 84.9248 127.109 85.3635 128.714 86.1452L130.793 81.7551C128.559 80.6743 126.051 80.0684 123.402 80.0684C114.015 80.0684 106.405 87.6785 106.405 97.066Z" fill="white"/>
<path d="M156.389 114.141C159.222 114.141 161.638 113.722 163.639 112.884C165.64 112.046 167.168 110.902 168.224 109.452C169.281 108.002 169.809 106.343 169.809 104.474C169.809 102.991 169.487 101.719 168.844 100.655C168.201 99.5919 167.36 98.7004 166.321 97.9808C165.282 97.2611 164.155 96.6811 162.94 96.2407C161.724 95.8003 160.538 95.4513 159.381 95.1935L155.84 94.3557C155.132 94.1946 154.394 93.9878 153.627 93.7354C152.86 93.483 152.143 93.1661 151.476 92.7848C150.809 92.4035 150.272 91.9282 149.865 91.359C149.457 90.7897 149.254 90.113 149.254 89.3289C149.254 88.3944 149.552 87.5593 150.148 86.8236C150.744 86.0878 151.585 85.5078 152.671 85.0835C153.757 84.6593 155.043 84.4471 156.53 84.4471C158.608 84.4471 160.331 84.8687 161.7 85.7119C163.069 86.5551 163.848 87.7393 164.037 89.2645H169.313C169.266 87.4922 168.699 85.9213 167.614 84.5519C166.528 83.1824 165.043 82.1056 163.161 81.3215C161.278 80.5374 159.109 80.1454 156.654 80.1454C154.223 80.1454 152.039 80.5401 150.104 81.3296C148.168 82.119 146.633 83.2227 145.5 84.6405C144.367 86.0583 143.801 87.7178 143.801 89.6189C143.801 91.9175 144.648 93.7649 146.341 95.1613C148.035 96.5576 150.334 97.6156 153.237 98.3352L157.522 99.3986C158.82 99.7101 159.986 100.07 161.019 100.478C162.051 100.886 162.872 101.402 163.48 102.025C164.087 102.648 164.391 103.448 164.391 104.425C164.391 105.499 164.043 106.437 163.347 107.237C162.65 108.037 161.697 108.66 160.487 109.106C159.278 109.551 157.9 109.774 156.353 109.774C154.949 109.774 153.659 109.584 152.485 109.202C151.31 108.821 150.348 108.236 149.599 107.446C148.849 106.657 148.422 105.666 148.315 104.474H142.827C142.945 106.461 143.565 108.177 144.686 109.621C145.807 111.066 147.359 112.18 149.342 112.964C151.325 113.749 153.674 114.141 156.389 114.141Z" fill="white"/>
<defs>
<linearGradient id="paint0_linear_2802_3394" x1="74.3114" y1="118.159" x2="71.541" y2="72.1156" gradientUnits="userSpaceOnUse">
<stop stop-color="#CFA552"/>
<stop offset="0.449606" stop-color="#FFF7E1"/>
<stop offset="1" stop-color="#BF9A4D"/>
</linearGradient>
</defs>
</svg>
