<svg width="512" height="512" viewBox="0 0 512 512" fill="none" xmlns="http://www.w3.org/2000/svg">
<rect width="512" height="512" fill="#0A0300"/>
<path d="M128.038 190C164.509 190 194.075 219.566 194.075 256.038C194.075 292.509 164.509 322.075 128.038 322.075C91.5661 322.075 62 292.509 62 256.038C62 219.566 91.5661 190 128.038 190ZM128.038 208.868C101.987 208.868 80.8679 229.987 80.8679 256.038C80.8679 282.089 101.987 303.207 128.038 303.207C154.089 303.207 175.207 282.089 175.207 256.038C175.207 229.987 154.089 208.868 128.038 208.868Z" fill="url(#paint0_linear_2981_5071)"/>
<path fill-rule="evenodd" clip-rule="evenodd" d="M203.517 256.038C203.517 292.509 233.083 322.076 269.554 322.076C306.026 322.076 335.592 292.509 335.592 256.038H316.764V234.385H295.066V256.083H316.724C316.7 282.113 295.59 303.208 269.554 303.208C243.503 303.208 222.385 282.089 222.385 256.038C222.385 229.987 243.503 208.868 269.554 208.868C276.955 208.868 283.957 210.572 290.19 213.61L298.269 196.553C289.587 192.354 279.846 190 269.554 190C233.083 190 203.517 219.566 203.517 256.038Z" fill="url(#paint1_linear_2981_5071)"/>
<path d="M397.71 322.375C408.716 322.375 418.105 320.747 425.878 317.492C433.651 314.237 439.589 309.793 443.693 304.16C447.797 298.526 449.849 292.079 449.849 284.818C449.849 279.059 448.6 274.114 446.101 269.983C443.601 265.852 440.334 262.388 436.299 259.592C432.263 256.796 427.884 254.543 423.161 252.832C418.438 251.121 413.829 249.765 409.335 248.763L395.578 245.508C392.827 244.882 389.961 244.079 386.98 243.098C383.999 242.118 381.213 240.887 378.622 239.405C376.032 237.924 373.945 236.077 372.363 233.866C370.781 231.654 369.99 229.025 369.99 225.979C369.99 222.348 371.148 219.104 373.464 216.245C375.779 213.387 379.047 211.133 383.265 209.485C387.484 207.837 392.483 207.012 398.261 207.012C406.331 207.012 413.026 208.65 418.346 211.926C423.665 215.202 426.692 219.803 427.426 225.728H447.923C447.74 218.843 445.539 212.74 441.32 207.419C437.101 202.099 431.335 197.915 424.021 194.869C416.707 191.823 408.28 190.299 398.742 190.299C389.296 190.299 380.812 191.833 373.292 194.9C365.771 197.967 359.81 202.255 355.407 207.763C351.005 213.272 348.804 219.719 348.804 227.105C348.804 236.036 352.094 243.213 358.675 248.638C365.255 254.063 374.186 258.173 385.467 260.969L402.113 265.1C407.157 266.311 411.685 267.709 415.698 269.294C419.71 270.88 422.897 272.883 425.259 275.303C427.62 277.724 428.801 280.833 428.801 284.63C428.801 288.803 427.448 292.444 424.743 295.553C422.037 298.662 418.334 301.082 413.634 302.814C408.934 304.546 403.58 305.412 397.573 305.412C392.116 305.412 387.106 304.671 382.543 303.189C377.98 301.708 374.243 299.434 371.331 296.367C368.419 293.299 366.757 289.45 366.344 284.818H345.021C345.479 292.538 347.887 299.204 352.243 304.817C356.6 310.43 362.63 314.759 370.334 317.805C378.038 320.852 387.163 322.375 397.71 322.375Z" fill="url(#paint2_linear_2981_5071)"/>
<defs>
<linearGradient id="paint0_linear_2981_5071" x1="211.58" y1="318.104" x2="203.638" y2="186.028" gradientUnits="userSpaceOnUse">
<stop stop-color="#CFA552"/>
<stop offset="0.449606" stop-color="#FFF7E1"/>
<stop offset="1" stop-color="#BF9A4D"/>
</linearGradient>
<linearGradient id="paint1_linear_2981_5071" x1="353.097" y1="318.104" x2="345.154" y2="186.029" gradientUnits="userSpaceOnUse">
<stop stop-color="#CFA552"/>
<stop offset="0.449606" stop-color="#FFF7E1"/>
<stop offset="1" stop-color="#BF9A4D"/>
</linearGradient>
<linearGradient id="paint2_linear_2981_5071" x1="463.743" y1="318.403" x2="453.757" y2="186.607" gradientUnits="userSpaceOnUse">
<stop stop-color="#CFA552"/>
<stop offset="0.449606" stop-color="#FFF7E1"/>
<stop offset="1" stop-color="#BF9A4D"/>
</linearGradient>
</defs>
</svg>
