<svg width="128" height="128" viewBox="0 0 128 128" fill="none" xmlns="http://www.w3.org/2000/svg">
<rect width="128" height="128" rx="19.5328" fill="#0A0300"/>
<path d="M103.677 28.0415C103.687 28.1168 103.687 28.1931 103.677 28.2684L101.08 48.2293C101.017 48.7106 100.576 49.0501 100.095 48.9874C99.9024 48.9624 99.7238 48.8745 99.5866 48.7373L94.2938 43.4435L82.3949 55.343C93.2373 68.8978 92.2383 85.8016 79.3979 106.054L78.9698 106.724L59.9293 87.6828L41.9182 90.0275C41.868 90.034 41.8174 90.0362 41.7669 90.034L41.6914 90.0275C41.21 89.9648 40.8706 89.5238 40.9332 89.0425L43.2775 71.031L24.2759 52.0302C44.7709 38.8206 61.8613 37.6496 75.5468 48.5172L87.4571 36.6067L82.2233 31.374C81.8801 31.0308 81.8801 30.4743 82.2233 30.131C82.3605 29.9939 82.5391 29.9059 82.7314 29.8809L102.692 27.2833C103.174 27.2207 103.615 27.5601 103.677 28.0415ZM75.9413 61.7971L60.6335 77.1038L76.3616 92.9457C80.9952 79.7453 80.8551 69.3625 75.9413 61.7971ZM38.354 54.6633L53.8216 70.2422L69.0805 54.9833C61.5524 50.1649 51.3103 50.0583 38.354 54.6633Z" fill="url(#paint0_linear_2794_3360)"/>
<defs>
<linearGradient id="paint0_linear_2794_3360" x1="114.209" y1="104.335" x2="109.429" y2="24.8871" gradientUnits="userSpaceOnUse">
<stop stop-color="#CFA552"/>
<stop offset="0.449606" stop-color="#FFF7E1"/>
<stop offset="1" stop-color="#BF9A4D"/>
</linearGradient>
</defs>
</svg>
