<svg width="128" height="128" viewBox="0 0 128 128" fill="none" xmlns="http://www.w3.org/2000/svg">
<rect width="128" height="128" rx="19.5328" fill="#0A0300"/>
<path d="M63.5 23C86.4198 23 105 41.5802 105 64.5C105 87.4198 86.4198 106 63.5 106C40.5802 106 22 87.4198 22 64.5C22 41.5802 40.5802 23 63.5 23ZM63.5 34.8571C47.1287 34.8571 33.8571 48.1287 33.8571 64.5C33.8571 80.8713 47.1287 94.1429 63.5 94.1429C79.8713 94.1429 93.1429 80.8713 93.1429 64.5C93.1429 48.1287 79.8713 34.8571 63.5 34.8571Z" fill="url(#paint0_linear_2981_5068)"/>
<defs>
<linearGradient id="paint0_linear_2981_5068" x1="116.001" y1="103.504" x2="111.009" y2="20.5042" gradientUnits="userSpaceOnUse">
<stop stop-color="#CFA552"/>
<stop offset="0.449606" stop-color="#FFF7E1"/>
<stop offset="1" stop-color="#BF9A4D"/>
</linearGradient>
</defs>
</svg>
