<svg width="46" height="46" viewBox="0 0 46 46" fill="none" xmlns="http://www.w3.org/2000/svg">
<path fill-rule="evenodd" clip-rule="evenodd" d="M36 22.5125C36 24.4849 35.5419 26.3516 34.7249 28.0134C34.7217 28.0198 34.7184 28.0263 34.7152 28.0327C34.6957 28.0708 34.6769 28.1076 34.6769 28.1351C34.6689 28.1511 34.6601 28.1679 34.6513 28.1847C34.6425 28.2015 34.6337 28.2183 34.6256 28.2343C33.6325 30.1523 32.2069 31.7116 30.525 32.8451C30.5154 32.8515 30.5026 32.8611 30.493 32.8675C30.4764 32.8785 30.4601 32.8896 30.4439 32.9006C30.4038 32.9278 30.3643 32.9545 30.3232 32.9796C30.2767 33.0084 30.2311 33.0372 30.1854 33.066C30.1398 33.0949 30.0942 33.1237 30.0477 33.1525C30.0477 33.1557 30.0445 33.1557 30.0413 33.1589C28.1416 34.3276 25.9055 35 23.5156 35C23.2849 35 23.0543 34.9936 22.8236 34.9808C22.8092 34.9792 22.794 34.9784 22.7788 34.9776C22.7635 34.9768 22.7483 34.976 22.7339 34.9744C22.657 34.9712 22.5769 34.9648 22.5 34.9583C22.4804 34.9569 22.4601 34.9546 22.4394 34.9524C22.4161 34.9498 22.3924 34.9473 22.3687 34.9456C22.3014 34.9392 22.2373 34.9328 22.1732 34.9263C22.1272 34.9235 22.0837 34.918 22.0381 34.9123C22.033 34.9116 22.0279 34.911 22.0227 34.9103C21.9923 34.9072 21.9626 34.9031 21.933 34.8991C21.9034 34.8951 21.8737 34.8911 21.8433 34.8879C21.8176 34.8847 21.792 34.8807 21.7664 34.8767C21.7408 34.8727 21.7151 34.8687 21.6895 34.8655C21.6607 34.8607 21.6311 34.8559 21.6015 34.8511C21.5719 34.8463 21.5422 34.8415 21.5133 34.8367C21.4877 34.8319 21.4621 34.8279 21.4365 34.8239C21.4108 34.8199 21.3852 34.8159 21.3595 34.8111C21.3307 34.8053 21.3025 34.8002 21.2747 34.7951C21.2407 34.789 21.2072 34.7829 21.1738 34.7758C21.1326 34.7704 21.0938 34.7625 21.0533 34.7544C21.0465 34.753 21.0397 34.7516 21.0328 34.7502C20.9623 34.7374 20.8886 34.7214 20.8182 34.7054C20.7797 34.699 20.7445 34.6926 20.7092 34.683C20.6003 34.6574 20.4914 34.6318 20.3857 34.6029C20.3748 34.6011 20.365 34.5983 20.3557 34.5956C20.3484 34.5935 20.3414 34.5915 20.3344 34.5901L20.3339 34.59C20.2412 34.5644 20.1484 34.5389 20.0589 34.5133C20.0236 34.5037 19.9916 34.4941 19.9596 34.4845C19.9227 34.4733 19.8851 34.4621 19.8474 34.4508C19.8098 34.4396 19.7722 34.4285 19.7353 34.4172C19.7047 34.4096 19.676 34.3999 19.6461 34.3897C19.6386 34.3872 19.631 34.3846 19.6232 34.382L19.623 34.3819C19.5526 34.3595 19.4822 34.3372 19.4118 34.3116C19.3926 34.3052 19.3733 34.298 19.3541 34.2908C19.3349 34.2836 19.3157 34.2764 19.2964 34.2699C19.2628 34.2571 19.2283 34.2443 19.1939 34.2315C19.1595 34.2187 19.1251 34.2059 19.0914 34.1931C19.0752 34.1869 19.0595 34.1812 19.0442 34.1755C19.0199 34.1666 18.9964 34.1581 18.9729 34.1483C18.9056 34.1227 18.8383 34.097 18.7711 34.0682C18.7518 34.0602 18.7318 34.0522 18.7118 34.0442C18.6918 34.0362 18.6717 34.0282 18.6525 34.0202C18.6221 34.0074 18.5924 33.9938 18.5628 33.9802C18.5332 33.9666 18.5036 33.953 18.4731 33.9402C18.3578 33.8922 18.2425 33.8377 18.1272 33.7833L18.1271 33.7833C18.1207 33.7801 18.1135 33.7768 18.1063 33.7736C18.0991 33.7705 18.0919 33.7673 18.0855 33.764C18.0567 33.7512 18.031 33.7384 18.0054 33.7256C17.9733 33.7128 17.9445 33.6968 17.9157 33.6808C17.7939 33.6199 17.669 33.5559 17.5473 33.4887C17.464 33.4439 17.3807 33.3958 17.2974 33.3478C17.2884 33.3411 17.2794 33.3359 17.2693 33.3301C17.265 33.3276 17.2605 33.325 17.2558 33.3222C15.0837 32.0734 13.3666 30.2323 12.2774 27.9974C12.2661 27.975 12.2549 27.9517 12.2437 27.9285C12.2325 27.9053 12.2213 27.8821 12.2101 27.8597C12.1749 27.7861 12.1397 27.7094 12.1045 27.6326L12.1044 27.6324C12.0339 27.4819 11.9698 27.3314 11.9089 27.1777C11.9057 27.1681 11.9017 27.1585 11.8977 27.1489C11.8937 27.1393 11.8897 27.1297 11.8865 27.1201C11.6623 26.5597 11.4765 25.9738 11.3355 25.375C11.3339 25.3718 11.3331 25.3678 11.3323 25.3638C11.3315 25.3598 11.3307 25.3558 11.3291 25.3526C11.2906 25.1861 11.2554 25.0196 11.2234 24.8499C11.217 24.8163 11.2114 24.7827 11.2058 24.749C11.2001 24.7154 11.1945 24.6818 11.1881 24.6482C11.1689 24.5425 11.1529 24.4369 11.1369 24.3312L11.1369 24.3312C10.9062 22.7847 10.9671 21.2221 11.3195 19.7044C11.3227 19.6884 11.3267 19.6716 11.3307 19.6548C11.3347 19.638 11.3387 19.6212 11.3419 19.6052L11.3419 19.6051C11.3771 19.4578 11.4124 19.3106 11.454 19.1665C11.4861 19.0448 11.5213 18.9231 11.5598 18.8015C11.5758 18.7438 11.595 18.6862 11.6142 18.6285C11.6623 18.4781 11.7135 18.3308 11.768 18.1867C11.7744 18.1691 11.7816 18.1515 11.7888 18.1339C11.796 18.1163 11.8032 18.0986 11.8096 18.081C11.8673 17.9209 11.9314 17.7641 11.9986 17.6072C12.0051 17.5911 12.0123 17.5751 12.0195 17.5591C12.0267 17.5431 12.0339 17.5271 12.0403 17.5111C12.1076 17.3574 12.1748 17.2069 12.2485 17.0564C12.2533 17.0468 12.2573 17.038 12.2613 17.0292C12.2653 17.0204 12.2693 17.0116 12.2741 17.002C12.287 16.9699 12.303 16.9411 12.319 16.9123C12.3799 16.7874 12.4439 16.6658 12.5112 16.5441C12.5352 16.5025 12.5585 16.4609 12.5817 16.4192C12.6049 16.3776 12.6281 16.336 12.6522 16.2943C12.6568 16.2828 12.6631 16.2729 12.6698 16.2623C12.6724 16.2583 12.6751 16.254 12.6778 16.2495C13.9272 14.0818 15.7693 12.3656 18.0022 11.2769C18.0502 11.2513 18.0983 11.2289 18.1464 11.2065C18.1832 11.1905 18.22 11.1729 18.2569 11.1553C18.2937 11.1377 18.3305 11.1201 18.3674 11.104C18.518 11.0336 18.6717 10.9696 18.8287 10.9055C18.8383 10.9023 18.8471 10.8983 18.8559 10.8943C18.8648 10.8903 18.8736 10.8863 18.8832 10.8831C19.447 10.659 20.0333 10.4733 20.6355 10.3324C20.6369 10.3324 20.6388 10.3318 20.6409 10.3312C20.644 10.3303 20.6478 10.3292 20.6516 10.3292C20.8182 10.2908 20.9879 10.2555 21.1577 10.2235C21.1906 10.2166 21.2245 10.2106 21.2587 10.2045C21.2879 10.1994 21.3173 10.1942 21.3467 10.1883C21.4012 10.1803 21.4565 10.1715 21.5117 10.1627C21.567 10.1539 21.6222 10.1451 21.6767 10.1371C24.1627 9.76564 26.6999 10.1499 29.0033 11.2802L27.0812 15.2057C25.9471 14.6486 24.7297 14.3732 23.5028 14.3764C23.0927 14.3764 22.6922 14.4084 22.2982 14.4661C22.2833 14.469 22.2685 14.4713 22.2539 14.4735C22.2371 14.4761 22.2208 14.4787 22.2053 14.4821C22.1156 14.4949 22.0227 14.5109 21.933 14.5301C21.9042 14.5365 21.8745 14.5429 21.8449 14.5493C21.8153 14.5557 21.7856 14.5621 21.7568 14.5685C21.7248 14.5765 21.6935 14.5837 21.6623 14.5909C21.631 14.5981 21.5998 14.6053 21.5678 14.6134C21.555 14.6166 21.5422 14.6197 21.5293 14.6229C21.4644 14.639 21.398 14.6555 21.3339 14.6742C21.3115 14.6806 21.2883 14.687 21.2651 14.6934C21.2418 14.6998 21.2186 14.7062 21.1962 14.7126L21.1961 14.7126C21.1096 14.7383 21.0232 14.7638 20.9399 14.7927C20.9175 14.8007 20.8958 14.8079 20.8742 14.8151C20.8526 14.8223 20.831 14.8295 20.8085 14.8375C20.7348 14.8631 20.658 14.8919 20.5843 14.9207C20.5717 14.9256 20.5591 14.9305 20.5463 14.9354C20.5003 14.953 20.4532 14.9711 20.4081 14.9912C20.3689 15.0059 20.3315 15.0224 20.2932 15.0394C20.2814 15.0447 20.2696 15.0499 20.2575 15.0552C20.171 15.0904 20.0845 15.1288 20.0012 15.1705C19.9932 15.1737 19.9852 15.1777 19.9772 15.1817C19.9692 15.1857 19.9612 15.1897 19.9532 15.1929C18.4251 15.9358 17.1628 17.1429 16.3523 18.6318C16.3507 18.6334 16.3499 18.6358 16.3491 18.6382C16.3483 18.6406 16.3475 18.643 16.3459 18.6446C16.2883 18.7534 16.2338 18.8622 16.1794 18.9711L16.1793 18.9712C16.1697 18.9904 16.1609 19.0104 16.1521 19.0304C16.1433 19.0504 16.1345 19.0704 16.1249 19.0896C16.0864 19.1697 16.0512 19.2497 16.016 19.3298H16.0159C16.0063 19.3522 15.9975 19.3746 15.9887 19.397C15.9799 19.4194 15.9711 19.4418 15.9615 19.4643C15.9508 19.491 15.9398 19.5176 15.9287 19.5443C15.9067 19.5977 15.8846 19.651 15.8654 19.7044C15.8606 19.7188 15.8558 19.7324 15.8509 19.746C15.8462 19.7596 15.8414 19.7733 15.8365 19.7877C15.5322 20.6362 15.3656 21.5519 15.3656 22.5061C15.3656 22.9159 15.3977 23.3194 15.4553 23.7132C15.4569 23.726 15.4593 23.7396 15.4617 23.7532C15.4641 23.7668 15.4665 23.7805 15.4681 23.7933C15.4841 23.8893 15.5002 23.9854 15.5194 24.0783C15.529 24.1327 15.5418 24.1903 15.5546 24.2447C15.5654 24.3011 15.5783 24.3551 15.5917 24.4107C15.5943 24.4215 15.5969 24.4323 15.5995 24.4433C15.6107 24.495 15.6252 24.5484 15.6394 24.6011C15.6454 24.6234 15.6515 24.6455 15.6571 24.6674C15.6644 24.6963 15.6726 24.7242 15.6808 24.7516C15.687 24.7728 15.6932 24.7937 15.6988 24.8147C15.7131 24.8677 15.7299 24.9194 15.747 24.9715C15.7567 25.0012 15.7664 25.031 15.7757 25.0612C15.7917 25.1093 15.8077 25.1573 15.8237 25.2021C15.8494 25.2758 15.875 25.3462 15.9038 25.4198C15.9166 25.4502 15.9287 25.4807 15.9406 25.5111C15.9527 25.5415 15.9647 25.5719 15.9775 25.6023C15.9871 25.6264 15.9975 25.6504 16.008 25.6744C16.0184 25.6984 16.0288 25.7224 16.0384 25.7464C16.0768 25.8361 16.1153 25.9225 16.1569 26.009C16.1665 26.0218 16.1729 26.0346 16.1793 26.0506C16.9226 27.5811 18.1335 28.8427 19.6264 29.6528C19.7353 29.7136 19.8474 29.7713 19.9596 29.8257C19.9916 29.8428 20.0236 29.857 20.0557 29.8712C20.0717 29.8783 20.0877 29.8854 20.1037 29.8929C20.1774 29.9282 20.2479 29.9602 20.3216 29.9922C20.3792 30.0172 20.4387 30.0403 20.4972 30.063C20.5135 30.0693 20.5297 30.0756 20.5458 30.0818C20.5939 30.101 20.642 30.1202 20.6932 30.1395C20.7957 30.1779 20.8982 30.2131 21.0007 30.2451C21.0232 30.2547 21.0488 30.2644 21.0744 30.2707C21.1962 30.3092 21.3179 30.3444 21.4429 30.3764C21.446 30.378 21.4492 30.3788 21.4525 30.3796C21.4557 30.3804 21.4589 30.3812 21.4621 30.3828C21.5678 30.4084 21.6767 30.4341 21.7824 30.4564C21.8037 30.4591 21.8228 30.464 21.8433 30.4693C21.8475 30.4703 21.8518 30.4714 21.8561 30.4725C21.8882 30.4789 21.921 30.4845 21.9538 30.4901C21.9866 30.4957 22.0195 30.5013 22.0515 30.5077C22.0852 30.5125 22.1188 30.5189 22.1525 30.5253C22.1861 30.5317 22.2197 30.5381 22.2534 30.5429C22.311 30.5525 22.3686 30.5589 22.4263 30.5653H22.4263C22.4531 30.5687 22.4795 30.5724 22.5057 30.5761C22.5549 30.5831 22.6037 30.59 22.6538 30.5941C22.6886 30.5975 22.7242 30.5999 22.7602 30.6024C22.7939 30.6047 22.828 30.6071 22.862 30.6101C22.9229 30.6166 22.987 30.623 23.051 30.6261C23.1089 30.6304 23.1683 30.6319 23.2281 30.6333C23.2576 30.634 23.2873 30.6347 23.3169 30.6358C23.3378 30.6358 23.3594 30.6366 23.381 30.6374C23.4026 30.6382 23.4243 30.639 23.4451 30.639C23.5604 30.639 23.6757 30.6358 23.7911 30.6326H23.8295C25.0052 30.5813 26.1553 30.2771 27.1965 29.7457C27.199 29.7444 27.2009 29.7436 27.2026 29.743C27.2054 29.742 27.2074 29.7412 27.2093 29.7392C27.3086 29.6912 27.4047 29.6368 27.5008 29.5823L27.597 29.5247C27.6642 29.4863 27.7315 29.4479 27.7956 29.4062C27.826 29.387 27.8564 29.367 27.8869 29.347C27.9173 29.327 27.9477 29.307 27.9782 29.2877C27.9958 29.2765 28.0134 29.2645 28.0311 29.2526C28.0486 29.2405 28.0663 29.2285 28.0839 29.2173C28.1704 29.1565 28.2569 29.0956 28.3434 29.0316C28.3466 29.0284 28.3506 29.026 28.3546 29.0236C28.3586 29.0212 28.3626 29.0188 28.3658 29.0156C29.2981 28.3176 30.0766 27.421 30.6372 26.3932C30.642 26.3836 30.6476 26.3732 30.6532 26.3628C30.6588 26.3524 30.6644 26.342 30.6692 26.3324C31.2811 25.1925 31.6271 23.8925 31.6271 22.5125H36ZM31.6395 17.9942H27.1337V22.5H31.6395V17.9942Z" fill="white"/>
<path fill-rule="evenodd" clip-rule="evenodd" d="M23 46C35.7025 46 46 35.7025 46 23C46 10.2975 35.7025 0 23 0C10.2975 0 0 10.2975 0 23C0 35.7025 10.2975 46 23 46ZM23 44C34.598 44 44 34.598 44 23C44 11.402 34.598 2 23 2C11.402 2 2 11.402 2 23C2 34.598 11.402 44 23 44Z" fill="#878E9F"/>
</svg>
