<svg width="103" height="32" viewBox="0 0 302 94" fill="none" xmlns="http://www.w3.org/2000/svg">
<path d="M93.9447 0.905867C93.9562 0.99496 93.9562 1.08518 93.9447 1.17427L90.8713 24.7912C90.7972 25.3608 90.2754 25.7624 89.7058 25.6883C89.4783 25.6587 89.2669 25.5546 89.1047 25.3924L82.8424 19.1289L68.7641 33.2079C81.5924 49.2454 80.4104 69.2453 65.2182 93.2076L64.7116 94L42.1837 71.471L20.8737 74.2452C20.8143 74.2529 20.7545 74.2555 20.6947 74.2529L20.6053 74.2452C20.0358 74.1711 19.6342 73.6493 19.7083 73.0797L22.4819 51.7693L0 29.2884C24.2489 13.6593 44.4695 12.2738 60.6617 25.1319L74.7535 11.0399L68.5611 4.8488C68.155 4.44268 68.155 3.78421 68.5611 3.37808C68.7234 3.21583 68.9347 3.1118 69.1623 3.08218L92.7792 0.00881164C93.3487 -0.0653062 93.8705 0.336318 93.9447 0.905867ZM61.1285 40.8442L43.0168 58.9545L61.6258 77.6979C67.1081 62.0797 66.9423 49.7952 61.1285 40.8442ZM16.6567 32.4037L34.9573 50.8361L53.0111 32.7824C44.1041 27.0814 31.986 26.9552 16.6567 32.4037Z" fill="url(#paint0_linear_2802_3411)"/>
<path d="M132.263 13.4095C151.428 13.4095 166.965 28.9457 166.965 48.1106C166.965 67.2756 151.428 82.8118 132.263 82.8118C113.098 82.8118 97.5621 67.2756 97.5621 48.1106C97.5621 28.9457 113.098 13.4095 132.263 13.4095ZM132.263 23.3241C118.574 23.3241 107.477 34.4214 107.477 48.1106C107.477 61.7999 118.574 72.8972 132.263 72.8972C145.953 72.8972 157.05 61.7999 157.05 48.1106C157.05 34.4214 145.953 23.3241 132.263 23.3241Z" fill="white"/>
<path fill-rule="evenodd" clip-rule="evenodd" d="M171.926 48.1108C171.926 67.2757 187.462 82.812 206.627 82.812C225.792 82.812 241.328 67.2757 241.328 48.1108H231.435V36.7327H220.033V48.1345H231.414C231.401 61.8129 220.308 72.8973 206.627 72.8973C192.938 72.8973 181.84 61.8 181.84 48.1108C181.84 34.4215 192.938 23.3242 206.627 23.3242C210.516 23.3242 214.195 24.2197 217.471 25.8157L221.716 16.853C217.154 14.6466 212.035 13.4096 206.627 13.4096C187.462 13.4096 171.926 28.9458 171.926 48.1108Z" fill="white"/>
<path d="M273.97 82.9692C279.753 82.9692 284.687 82.114 288.771 80.4036C292.856 78.6932 295.976 76.3579 298.133 73.3976C300.289 70.4373 301.368 67.0494 301.368 63.2339C301.368 60.2078 300.711 57.6094 299.398 55.4385C298.085 53.2676 296.368 51.4476 294.247 49.9784C292.127 48.5092 289.825 47.3251 287.344 46.426C284.862 45.527 282.44 44.8143 280.078 44.2881L272.849 42.5777C271.404 42.2487 269.898 41.8266 268.331 41.3113C266.765 40.796 265.301 40.1491 263.94 39.3707C262.578 38.5922 261.482 37.6219 260.65 36.4597C259.819 35.2975 259.403 33.9161 259.403 32.3153C259.403 30.4076 260.012 28.7027 261.229 27.2006C262.446 25.6985 264.163 24.5144 266.379 23.6482C268.596 22.7821 271.223 22.349 274.259 22.349C278.5 22.349 282.018 23.2097 284.813 24.931C287.609 26.6524 289.199 29.07 289.585 32.1837H300.356C300.259 28.5656 299.103 25.3586 296.886 22.5628C294.669 19.767 291.639 17.5687 287.795 15.9679C283.952 14.3672 279.524 13.5668 274.512 13.5668C269.548 13.5668 265.09 14.3727 261.138 15.9844C257.187 17.5961 254.054 19.8492 251.741 22.7437C249.427 25.6382 248.271 29.0261 248.271 32.9074C248.271 37.6 250 41.3716 253.458 44.2223C256.915 47.0729 261.608 49.2328 267.536 50.702L276.283 52.8729C278.934 53.5088 281.313 54.2434 283.422 55.0767C285.53 55.9099 287.205 56.9625 288.446 58.2343C289.687 59.5061 290.307 61.1398 290.307 63.1352C290.307 65.328 289.597 67.2413 288.175 68.8749C286.753 70.5086 284.807 71.7804 282.337 72.6904C279.868 73.6004 277.054 74.0554 273.898 74.0554C271.03 74.0554 268.398 73.6662 266 72.8878C263.602 72.1093 261.638 70.9142 260.108 69.3025C258.578 67.6908 257.705 65.6679 257.488 63.2339H246.283C246.524 67.2906 247.789 70.7936 250.078 73.743C252.367 76.6923 255.536 78.9673 259.584 80.5681C263.632 82.1688 268.428 82.9692 273.97 82.9692Z" fill="white"/>
<defs>
<linearGradient id="paint0_linear_2802_3411" x1="106.406" y1="91.1734" x2="100.75" y2="-2.82625" gradientUnits="userSpaceOnUse">
<stop stop-color="#CFA552"/>
<stop offset="0.449606" stop-color="#FFF7E1"/>
<stop offset="1" stop-color="#BF9A4D"/>
</linearGradient>
</defs>
</svg>
