<svg width="93" height="32" viewBox="0 0 204 70" fill="none" xmlns="http://www.w3.org/2000/svg">
<path d="M34.7012 0C53.8661 0 69.4024 15.5363 69.4024 34.7012C69.4024 53.8661 53.8661 69.4024 34.7012 69.4024C15.5363 69.4024 0 53.8661 0 34.7012C0 15.5363 15.5363 0 34.7012 0ZM34.7012 9.91463C21.012 9.91463 9.91463 21.012 9.91463 34.7012C9.91463 48.3904 21.012 59.4878 34.7012 59.4878C48.3904 59.4878 59.4878 48.3904 59.4878 34.7012C59.4878 21.012 48.3904 9.91463 34.7012 9.91463Z" fill="url(#paint0_linear_2802_3416)"/>
<path fill-rule="evenodd" clip-rule="evenodd" d="M74.3635 34.7013C74.3635 53.8663 89.8998 69.4025 109.065 69.4025C128.23 69.4025 143.766 53.8663 143.766 34.7013H133.872V23.3233H122.47V34.7251H133.851C133.838 48.4034 122.746 59.4879 109.065 59.4879C95.3755 59.4879 84.2782 48.3906 84.2782 34.7013C84.2782 21.0121 95.3755 9.91475 109.065 9.91475C112.953 9.91475 116.633 10.8102 119.908 12.4063L124.154 3.44357C119.591 1.23711 114.472 0.00012207 109.065 0.00012207C89.8998 0.00012207 74.3635 15.5364 74.3635 34.7013Z" fill="url(#paint1_linear_2802_3416)"/>
<path d="M176.408 69.5597C182.191 69.5597 187.125 68.7045 191.209 66.9942C195.293 65.2838 198.414 62.9484 200.571 59.9881C202.727 57.0278 203.806 53.6399 203.806 49.8245C203.806 46.7984 203.149 44.1999 201.836 42.029C200.522 39.8581 198.806 38.0381 196.685 36.5689C194.565 35.0998 192.263 33.9156 189.781 33.0166C187.299 32.1175 184.878 31.4049 182.516 30.8786L175.287 29.1682C173.841 28.8393 172.335 28.4172 170.769 27.9019C169.203 27.3865 167.739 26.7397 166.378 25.9612C165.016 25.1828 163.92 24.2125 163.088 23.0503C162.257 21.8881 161.841 20.5066 161.841 18.9059C161.841 16.9981 162.45 15.2932 163.667 13.7911C164.884 12.2891 166.6 11.1049 168.817 10.2388C171.034 9.37263 173.661 8.93955 176.697 8.93955C180.938 8.93955 184.456 9.80022 187.251 11.5216C190.046 13.2429 191.637 15.6605 192.022 18.7743H202.794C202.697 15.1562 201.541 11.9492 199.324 9.15335C197.107 6.35752 194.077 4.15922 190.233 2.55847C186.39 0.957724 181.962 0.157349 176.95 0.157349C171.986 0.157349 167.528 0.963206 163.576 2.57492C159.624 4.18663 156.492 6.43975 154.179 9.33425C151.865 12.2288 150.709 15.6166 150.709 19.4979C150.709 24.1905 152.438 27.9622 155.895 30.8128C159.353 33.6635 164.046 35.8234 169.974 37.2926L178.721 39.4634C181.372 40.0994 183.751 40.8339 185.86 41.6672C187.968 42.5005 189.643 43.553 190.884 44.8249C192.125 46.0967 192.745 47.7303 192.745 49.7258C192.745 51.9186 192.034 53.8318 190.613 55.4655C189.191 57.0991 187.245 58.3709 184.775 59.2809C182.305 60.191 179.492 60.646 176.335 60.646C173.468 60.646 170.835 60.2567 168.438 59.4783C166.04 58.6999 164.076 57.5048 162.546 55.8931C161.016 54.2813 160.143 52.2585 159.926 49.8245H148.721C148.962 53.8812 150.227 57.3842 152.516 60.3335C154.805 63.2828 157.974 65.5579 162.022 67.1586C166.07 68.7594 170.866 69.5597 176.408 69.5597Z" fill="url(#paint2_linear_2802_3416)"/>
<defs>
<linearGradient id="paint0_linear_2802_3416" x1="78.6009" y1="67.3154" x2="74.4271" y2="-2.08693" gradientUnits="userSpaceOnUse">
<stop stop-color="#CFA552"/>
<stop offset="0.449606" stop-color="#FFF7E1"/>
<stop offset="1" stop-color="#BF9A4D"/>
</linearGradient>
<linearGradient id="paint1_linear_2802_3416" x1="152.964" y1="67.3156" x2="148.791" y2="-2.08681" gradientUnits="userSpaceOnUse">
<stop stop-color="#CFA552"/>
<stop offset="0.449606" stop-color="#FFF7E1"/>
<stop offset="1" stop-color="#BF9A4D"/>
</linearGradient>
<linearGradient id="paint2_linear_2802_3416" x1="211.107" y1="67.4728" x2="205.859" y2="-1.78299" gradientUnits="userSpaceOnUse">
<stop stop-color="#CFA552"/>
<stop offset="0.449606" stop-color="#FFF7E1"/>
<stop offset="1" stop-color="#BF9A4D"/>
</linearGradient>
</defs>
</svg>
