<svg width="201" height="68" viewBox="0 0 201 68" fill="none" xmlns="http://www.w3.org/2000/svg">
<path d="M33.8206 1C51.9469 1 66.6412 15.6943 66.6412 33.8206C66.6412 51.9469 51.9469 66.6412 33.8206 66.6412C15.6943 66.6412 1 51.9469 1 33.8206C1 15.6943 15.6943 1 33.8206 1ZM33.8206 10.3773C20.8732 10.3773 10.3773 20.8732 10.3773 33.8206C10.3773 46.768 20.8732 57.2639 33.8206 57.2639C46.768 57.2639 57.2639 46.768 57.2639 33.8206C57.2639 20.8732 46.768 10.3773 33.8206 10.3773Z" fill="url(#paint0_linear_878_197)"/>
<path fill-rule="evenodd" clip-rule="evenodd" d="M74.9917 33.8206C74.9917 51.9469 89.686 66.6412 107.812 66.6412C125.939 66.6412 140.633 51.9469 140.633 33.8206H131.275V23.0591H120.491V33.843H131.256C131.243 46.7801 120.752 57.2639 107.812 57.2639C94.8649 57.2639 84.369 46.768 84.369 33.8206C84.369 20.8732 94.8649 10.3773 107.812 10.3773C111.49 10.3773 114.97 11.2243 118.068 12.7338L122.084 4.25683C117.768 2.16995 112.927 1 107.812 1C89.686 1 74.9917 15.6943 74.9917 33.8206Z" fill="url(#paint1_linear_878_197)"/>
<path d="M177.304 32.4515L200 65.1198H186.818L179.253 54.6889L170.197 40.9338L161.027 54.8035L153.462 65.1198H140.624L163.205 32.6807L141.77 2.07568H154.838L161.027 10.3287L170.197 24.1984L179.368 10.3287L185.443 2.07568H198.395L177.304 32.4515Z" fill="url(#paint2_linear_878_197)"/>
<defs>
<linearGradient id="paint0_linear_878_197" x1="39.3013" y1="66.6412" x2="36.8145" y2="1" gradientUnits="userSpaceOnUse">
<stop stop-color="#FFC846"/>
<stop offset="0.449606" stop-color="#FFFDEC"/>
<stop offset="1" stop-color="#FFC642"/>
</linearGradient>
<linearGradient id="paint1_linear_878_197" x1="113.293" y1="66.6412" x2="110.806" y2="1" gradientUnits="userSpaceOnUse">
<stop stop-color="#FFC846"/>
<stop offset="0.449606" stop-color="#FFFDEC"/>
<stop offset="1" stop-color="#FFC642"/>
</linearGradient>
<linearGradient id="paint2_linear_878_197" x1="175.27" y1="65.1198" x2="172.734" y2="2.08719" gradientUnits="userSpaceOnUse">
<stop stop-color="#FFC846"/>
<stop offset="0.449606" stop-color="#FFFDEC"/>
<stop offset="1" stop-color="#FFC642"/>
</linearGradient>
</defs>
</svg>
